<svg xmlns="http://www.w3.org/2000/svg" xmlns:xlink="http://www.w3.org/1999/xlink" height="460" contentStyleType="text/css" preserveAspectRatio="none" style="width:499px;height:460px;background:#fff" width="499" version="1.1" viewBox="0 0 499 460" zoomAndPan="magnify"><g><text x="121.943" y="22.995" fill="#000" font-family="sans-serif" font-size="14" font-weight="bold" lengthAdjust="spacing" textLength="241.985">Déploiement d&apos;une application</text><g id="cluster_dépôt git"><polygon fill="none" points="155.38 44.297 155.38 44.507 165.58 43.883 175.78 44.49 185.98 44.697 196.18 43.584 206.38 44.219 216.58 43.87 226.78 43.913 236.98 44.229 247.18 43.605 257.38 44.297 257.451 44.467 257.653 44.249 258.062 44.529 258.496 44.869 258.783 44.856 259.148 45.029 259.169 45.038 259.284 45.379 259.496 45.759 259.661 46.12 259.914 46.518 259.88 46.797 260.551 46.797 260.559 56.275 260.135 65.752 260.344 75.23 260.582 84.708 259.159 94.186 260.558 103.663 259.584 113.141 260.414 122.619 259.88 132.097 259.728 132.034 259.712 132.442 259.815 132.899 259.426 133.151 259.327 133.524 259.148 133.865 259.191 133.969 258.847 134.139 258.44 134.156 258.124 134.392 257.661 134.274 257.38 134.597 257.38 134.881 247.18 135.145 236.98 135.041 226.78 135.21 216.58 134.114 206.38 133.945 196.18 133.976 185.98 134.538 175.78 134.4 165.58 135.278 155.38 134.597 155.358 134.543 154.983 134.345 154.702 134.374 154.234 133.952 153.9 133.851 153.612 133.865 153.812 133.947 153.6 133.567 153.546 133.251 153.074 132.763 153.125 132.491 152.88 132.097 153.47 132.097 152.408 122.619 152.784 113.141 153.006 103.663 153.532 94.186 152.876 84.708 153.343 75.23 152.326 65.752 152.203 56.275 152.88 46.797 153.035 46.861 152.806 46.352 153.33 46.155 153.383 45.763 153.383 45.349 153.612 45.029 153.567 44.92 154.024 45.024 154.281 44.644 154.748 44.772 154.956 44.273 155.38 44.297" style="stroke:#181818;stroke-width:1"/><polygon fill="none" points="242.88 49.297 242.95 49.297 242.742 52.097 242.944 54.897 243.013 57.697 242.642 60.497 242.88 63.297 242.88 63.271 245.28 63.155 247.68 63.169 250.08 63.274 252.48 63.066 254.88 63.297 255.065 63.297 254.67 61.697 254.814 60.097 255.024 58.497 254.851 56.897 254.88 55.297 254.896 55.313 253.673 54.089 252.522 52.939 251.336 51.753 250.218 50.635 248.88 49.297 248.88 49.521 247.68 49.523 246.48 49.382 245.28 49.451 244.08 49.531 242.88 49.297" style="stroke:#181818;stroke-width:1"/><path fill="none" d="M248.88,49.2969 L248.9734,49.2969 L248.6959,50.4969 L248.9659,51.6969 L249.0576,52.8969 L248.5629,54.0969 L248.88,55.2969" style="stroke:#181818;stroke-width:1"/><path fill="none" d="M254.88,55.2969 L254.88,55.3903 L253.68,55.1127 L252.48,55.3828 L251.28,55.4745 L250.08,54.9798 L248.88,55.2969" style="stroke:#181818;stroke-width:1"/><text x="160.514" y="59.292" fill="#000" font-family="sans-serif" font-size="14" font-weight="bold" lengthAdjust="spacing" textLength="72.235">dépôt git</text></g><g id="cluster_Cloud Provider"><path fill="none" d="M249.5246,216.6054 L249.5246,216.6054 L249.5247,216.6988 L252.4664,216.4252 L255.4088,216.6993 L258.351,216.795 L261.2924,216.3043 L264.2349,216.6253 L264.2349,216.6253 L264.2274,216.5916 L267.1374,215.7791 L270.0857,215.1365 L273.0604,214.612 L275.9437,213.6806 L278.9551,213.3191 L278.9551,213.3191 L278.9919,213.5624 L281.8985,212.5903 L284.9126,212.3284 L287.9398,212.1533 L290.8907,211.4739 L293.8817,211.0597 L293.8817,211.0597 L293.8822,211.09 L296.588,211.0928 L299.2963,211.2337 L302.0033,211.308 L304.7126,211.5093 L307.4146,211.2964 L307.4146,211.2964 L307.5036,211.581 L310.3454,210.6958 L313.1298,209.6269 L315.9982,208.8268 L318.8705,208.0393 L321.618,206.8528 L321.618,206.8528 L321.6147,206.5322 L324.9278,207.1196 L328.2298,206.6516 L331.5403,206.986 L334.8421,206.494 L338.151,206.6794 L338.151,206.6794 L338.1502,206.6489 L340.9824,207.0807 L343.7965,206.8014 L346.6213,206.9418 L349.447,207.1173 L352.2663,207.0387 L352.2663,207.0387 L352.3245,207.2143 L354.955,207.9284 L357.685,208.9425 L360.2541,209.4712 L363.0632,210.724 L365.7127,211.4953 L365.7127,211.4953 L365.7241,211.7387 L368.9408,211.5415 L372.1632,211.4652 L375.3592,210.8274 L378.5745,210.6012 L381.807,210.7395 L381.807,210.7395 L381.7251,210.4758 L384.5893,211.5805 L387.3612,212.388 L390.2669,213.6266 L392.9442,214.1292 L395.7573,215.0692 L395.7573,215.0692 L395.754,214.9168 L398.6358,215.2342 L401.5033,214.9 L404.381,215.0291 L407.2687,215.6116 L410.1386,215.3868 L410.1386,215.3868 L410.1928,215.5727 L412.9596,214.9049 L415.5578,213.6588 L418.3671,213.137 L421.1305,212.4574 L423.7867,211.4101 L423.6141,211.2906 L425.3703,213.7232 L427.07,216.1167 L428.8808,218.5871 L430.2598,220.7585 L431.88,223.0969 L431.88,223.0969 L432.0807,223.1413 L431.7606,223.5904 L431.8279,224.1253 L432.4612,224.7854 L432.0525,225.2149 L432.4845,225.8305 L432.4845,225.8305 L432.7101,225.8473 L432.8298,229.2297 L432.8732,232.6064 L433.0889,235.9959 L433.7028,239.4153 L433.7532,242.7924 L433.7532,242.7924 L433.6206,242.7817 L434.2531,245.7513 L433.9838,248.648 L434.7399,251.6276 L434.9187,254.5605 L434.9419,257.4808 L434.9419,257.4808 L435.0508,257.4821 L434.9201,261.3167 L435.1792,265.1557 L435.0861,268.9908 L434.8458,272.8242 L434.7278,276.659 L434.7278,276.659 L434.8459,276.6747 L435.0678,279.6463 L435.8382,282.6907 L435.9882,285.6527 L436.3934,288.6487 L436.7148,291.6335 L436.7148,291.6335 L436.5068,291.4607 L438.1594,293.424 L440.0626,295.5956 L441.6113,297.4725 L443.0329,299.244 L444.6307,301.1618 L444.5094,301.0859 L443.2335,303.2101 L441.7428,305.1998 L440.8428,307.5594 L439.6505,309.7359 L438.0572,311.6614 L438.0572,311.6614 L438.2909,311.6717 L438.2158,315.0882 L437.6966,318.4852 L437.646,321.9028 L437.2852,325.3067 L437.3074,328.7275 L437.3074,328.7275 L437.4334,328.7349 L437.2449,331.6438 L437.2085,334.5616 L436.6895,337.4509 L436.5598,340.3632 L436.4474,343.2765 L436.4474,343.2765 L436.6442,343.2878 L436.4804,347.1061 L435.7824,350.8939 L435.705,354.7172 L435.6385,358.5411 L435.3535,362.3525 L435.3535,362.3525 L435.0824,362.3385 L435.3541,365.3754 L435.1556,368.388 L434.8401,371.3945 L434.7918,374.4148 L434.5724,377.4263 L434.5724,377.4263 L434.8959,377.4404 L434.6017,381.2777 L435.0488,385.1473 L435.204,389.0042 L435.2968,392.8583 L435.4137,396.7135 L435.4137,396.7135 L435.4755,396.7232 L434.9581,399.9593 L434.1288,403.1467 L433.7214,406.4 L433.1894,409.6338 L432.8867,412.9035 L432.8867,412.9035 L432.9139,412.9113 L433.7454,415.7626 L434.598,418.6199 L435.2257,421.4125 L436.1423,424.2882 L436.9922,427.1448 L436.9614,427.1012 L434.7175,429.0628 L432.2566,430.7166 L429.6005,432.0937 L427.2838,433.952 L424.88,435.6869 L424.88,435.6869 L424.76,435.4601 L425.2804,435.9804 L425.6875,436.2863 L426.0146,436.4415 L426.1513,436.2367 L426.5823,436.588 L426.5823,436.588 L426.6014,436.7933 L423.7948,436.5149 L421.0765,437.1879 L418.2989,437.2225 L415.5582,437.6534 L412.7971,437.8662 L412.7971,437.8662 L412.8205,437.9704 L409.5662,438.8067 L406.1732,439.0256 L403.0127,440.2798 L399.7069,440.8867 L396.4126,441.5452 L396.4126,441.5452 L396.4271,441.7024 L393.5109,442.1467 L390.5484,442.0888 L387.6231,442.4345 L384.6924,442.7219 L381.7515,442.898 L381.7515,442.898 L381.7587,442.9854 L379.0719,442.6772 L376.4182,442.772 L373.6905,441.9667 L371.0538,442.2667 L368.3536,441.7959 L368.3536,441.7959 L368.2983,441.5241 L364.7789,442.2784 L361.3035,443.249 L357.7757,443.9618 L354.2027,444.4527 L350.7196,445.3852 L350.7196,445.3852 L350.7279,445.5689 L348.0696,445.5534 L345.4299,445.9476 L342.7766,446.0411 L340.102,445.6658 L337.4589,445.9847 L337.4589,445.9847 L337.4504,445.808 L334.3455,445.7784 L331.2452,445.8446 L328.1356,445.7168 L325.0228,445.5226 L321.9058,445.24 L321.9058,445.24 L321.8829,445.0898 L319.0431,445.0776 L316.1377,444.6345 L313.187,443.8933 L310.269,443.367 L307.3797,443.0301 L307.3797,443.0301 L307.3453,442.855 L304.5482,442.3833 L301.7653,441.9836 L298.9345,441.3406 L296.0914,440.635 L293.3141,440.264 L293.3141,440.264 L293.3169,440.4806 L289.9985,440.1031 L286.6911,440.5733 L283.3778,440.5828 L280.0645,440.6012 L276.7495,440.4789 L276.7495,440.4789 L276.8141,440.7798 L274.2513,439.84 L271.771,439.2842 L269.3724,439.1082 L266.793,438.0914 L264.3735,437.8187 L264.3735,437.8187 L264.3456,437.7185 L261.2741,438.7355 L258.1554,439.5828 L254.9912,440.2673 L251.9157,441.2697 L248.8076,442.1555 L249.0835,442.3383 L247.2623,439.621 L245.0157,436.6216 L243.4801,434.0936 L241.4751,431.2544 L239.88,428.6869 L239.88,428.6869 L239.8798,428.6752 L240.2868,428.8256 L240.692,428.8906 L241.0859,428.4172 L241.4999,428.8991 L241.9002,428.7296 L241.9002,428.7296 L241.9039,428.7301 L241.3111,426.1253 L241.0037,423.5588 L241.0106,421.0343 L240.6323,418.4583 L240.1777,415.872 L240.1777,415.872 L240.1705,415.8712 L239.5617,412.8952 L239.8303,410.0142 L239.0826,407.0231 L238.668,404.068 L238.5822,401.1487 L238.5822,401.1487 L238.5524,401.1459 L238.571,398.1786 L238.3102,395.1858 L237.7812,392.1686 L237.4266,389.1673 L237.2213,386.1796 L237.2213,386.1796 L237.2962,386.1889 L236.9368,383.2417 L236.2641,380.2554 L236.3039,377.3578 L236.0012,374.4176 L235.3881,371.4388 L235.3881,371.4388 L235.2922,371.4386 L235.1905,368.691 L235.6743,365.9448 L235.3771,363.1967 L235.3609,360.4492 L235.3541,357.7018 L235.3541,357.7018 L235.4863,357.7159 L234.737,354.5639 L234.9248,351.5119 L234.352,348.3788 L234.3226,345.3036 L233.6952,342.1646 L233.6952,342.1646 L233.5997,342.1554 L233.569,338.9987 L232.8845,335.7789 L232.8821,332.625 L232.6343,329.4474 L232.1593,326.2478 L232.1593,326.2478 L232.0139,326.2445 L232.2584,323.5618 L231.7809,320.8625 L231.7636,318.1738 L232.2138,315.4959 L231.8481,312.7991 L231.8481,312.7991 L232.1472,312.8543 L232.6857,309.6499 L232.8688,306.38 L233.7833,303.2449 L233.9982,299.9809 L234.7936,296.8239 L234.7936,296.8239 L234.8191,296.8281 L235.2378,294.1295 L235.568,291.4164 L236.3979,288.7858 L236.767,286.079 L237.0174,283.3527 L237.0174,283.3527 L236.8751,283.3441 L237.4224,280.5305 L237.4009,277.6826 L237.2726,274.8281 L237.5993,272.0012 L237.8742,269.1711 L237.8742,269.1711 L237.6408,269.169 L237.8399,266.1735 L237.6497,263.1744 L237.6901,260.1774 L238.0156,257.183 L238.0119,254.1857 L238.0119,254.1857 L237.9588,254.1786 L238.3829,251.1942 L238.7424,248.2012 L239.276,245.2314 L239.3545,242.2011 L239.9959,239.2455 L239.9959,239.2455 L240.0632,239.2686 L238.7214,236.3327 L238.1963,233.6768 L237.359,230.9139 L236.3673,228.098 L235.1857,225.2171 L235.2845,225.3437 L237.5771,223.4604 L239.8923,221.6061 L242.0274,219.5207 L244.6632,218.0774 L246.88,216.0969 L246.88,216.0969 L246.9077,216.2407 L247.396,216.1316 L247.9373,216.2978 L248.4492,216.3109 L249.0139,216.5987 L249.5246,216.6054" style="stroke:#181818;stroke-width:1"/><text x="277.539" y="234.092" fill="#000" font-family="sans-serif" font-size="14" font-weight="bold" lengthAdjust="spacing" textLength="116.683">Cloud Provider</text></g><g id="elem_code"><polygon fill="#F1F1F1" points="180.5 79.297 180.5 79.507 190.294 78.883 200.088 79.49 209.881 79.697 219.675 78.584 229.469 79.219 239.263 79.297 239.208 79.165 239.567 79.325 239.961 79.569 240.235 79.523 240.748 80.053 241.03 80.029 240.836 79.949 241.116 80.357 241.456 80.791 241.443 81.079 241.637 81.452 241.763 81.797 241.752 81.797 241.822 88.656 241.842 95.516 241.958 102.375 241.986 109.234 241.763 116.094 241.972 116.18 241.695 116.48 241.613 116.86 241.54 117.244 240.955 117.416 241.03 117.862 241.117 118.07 240.639 117.917 240.391 118.319 239.907 118.148 239.607 118.426 239.263 118.594 239.263 119.335 229.469 118.545 219.675 118.699 209.881 118.932 200.088 119.01 190.294 118.59 180.5 118.594 180.537 118.682 180.073 118.271 179.829 118.388 179.509 118.323 179.143 118.145 178.732 117.862 178.921 117.94 178.437 117.446 178.238 117.071 178.101 116.722 178.128 116.44 178 116.094 177.935 116.094 178.227 109.234 177.942 102.375 177.886 95.516 178.076 88.656 178 81.797 177.795 81.712 177.987 81.377 178.493 81.172 178.573 80.792 178.812 80.476 178.732 80.029 178.691 79.93 179.126 79.981 179.515 79.918 179.733 79.444 180.134 79.414 180.5 79.297" style="stroke:#181818;stroke-width:.5"/><polygon fill="#F1F1F1" points="224.763 84.297 224.833 84.297 224.625 87.097 224.827 89.897 224.896 92.697 224.525 95.497 224.763 98.297 224.763 98.271 227.163 98.155 229.563 98.169 231.963 98.274 234.363 98.066 236.763 98.297 236.947 98.297 236.553 96.697 236.697 95.097 236.907 93.497 236.734 91.897 236.763 90.297 236.779 90.313 235.555 89.089 234.405 87.939 233.219 86.753 232.101 85.635 230.763 84.297 230.763 84.521 229.563 84.523 228.363 84.382 227.163 84.451 225.963 84.531 224.763 84.297" style="stroke:#181818;stroke-width:.5"/><path fill="#F1F1F1" d="M230.7627,84.2969 L230.8561,84.2969 L230.5786,85.4969 L230.8486,86.6969 L230.9403,87.8969 L230.4456,89.0969 L230.7627,90.2969" style="stroke:#181818;stroke-width:.5"/><path fill="#F1F1F1" d="M236.7627,90.2969 L236.7627,90.3903 L235.5627,90.1127 L234.3627,90.3828 L233.1627,90.4745 L231.9627,89.9798 L230.7627,90.2969" style="stroke:#181818;stroke-width:.5"/><text x="188" y="105.292" fill="#000" font-family="sans-serif" font-size="14" lengthAdjust="spacing" textLength="33.763">code</text></g><g id="elem_bdd"><path fill="#F1F1F1" d="M263.7,384.3869 L263.7,384.3869 L263.7408,384.4709 L266.0004,383.065 L268.4991,382.1516 L270.92,381.0779 L273.0847,379.4767 L275.604,378.6056 L275.599,378.5714 L278.017,378.0626 L280.4601,377.726 L282.9206,377.5092 L285.321,376.8797 L287.8056,376.8283 L287.8265,377.0735 L290.5792,376.3109 L293.393,376.2641 L296.2142,376.3047 L298.9921,375.8372 L301.7928,375.6369 L301.7943,375.6672 L304.5895,375.4782 L307.3917,375.4271 L310.1906,375.3094 L312.996,375.3187 L315.78,374.9142 L315.789,375.2123 L318.2295,375.1418 L320.664,374.8789 L323.1072,374.8975 L325.5507,374.9293 L327.9816,374.5431 L327.9773,374.2226 L330.3663,374.8134 L332.7414,374.3489 L335.1271,374.6866 L337.5019,374.1981 L339.8855,374.3869 L339.8855,374.3869 L339.8851,374.3564 L342.2707,374.7477 L344.6469,374.4277 L347.0286,374.5274 L349.4107,374.6624 L351.7895,374.5431 L351.7952,374.728 L354.2298,374.6156 L356.6741,374.8192 L359.1028,374.5115 L361.5547,374.9663 L363.9911,374.9142 L364.0037,375.1575 L366.7988,375.2561 L369.6001,375.4754 L372.3724,375.1334 L375.1659,375.2029 L377.9783,375.6369 L377.9549,375.3617 L380.7735,375.8491 L383.5658,376.0264 L386.3963,376.6535 L389.1615,376.5126 L391.9655,376.8283 L391.9435,376.6774 L394.4205,377.2841 L396.8034,377.2459 L399.2532,377.6664 L401.7684,378.5356 L404.1671,378.6056 L404.2517,378.7798 L406.6905,380.0555 L408.8662,380.7895 L411.3715,382.202 L413.8049,383.4667 L416.0711,384.3869 L415.6512,384.3869 L415.9859,389.4462 L416.1831,394.5056 L416.6504,399.565 L416.0674,404.6244 L416.0711,409.6838 L416.0711,409.6838 L416.1609,409.8687 L413.5828,410.6186 L411.178,411.7255 L409.0265,413.3538 L406.4087,414.0221 L404.1671,415.465 L404.1997,415.6888 L401.74,415.9113 L399.2693,416.0581 L396.8235,416.3758 L394.4352,417.0886 L391.9655,417.2423 L391.9542,417.1098 L389.1904,417.7427 L386.3498,417.4741 L383.5965,418.2306 L380.794,418.4099 L377.9783,418.4338 L377.9839,418.5425 L375.182,418.5992 L372.4001,419.0453 L369.6001,419.1397 L366.7924,419.087 L363.9911,419.1564 L363.9948,419.2755 L361.5491,419.1728 L359.1202,419.6231 L356.6723,419.4479 L354.2322,419.5299 L351.7895,419.5275 L351.786,419.2571 L349.4064,419.3787 L347.031,419.8259 L344.6497,419.8122 L342.2661,419.6334 L339.8855,419.6838 L339.8855,419.6838 L339.8837,419.5406 L337.5035,419.5552 L335.1199,419.3163 L332.7456,419.7743 L330.3667,419.8874 L327.9816,419.5275 L327.9887,419.7613 L325.5506,419.762 L323.0991,419.3183 L320.6618,419.3436 L318.215,419.0584 L315.78,419.1564 L315.7865,419.2825 L312.9882,419.1214 L310.1978,419.1125 L307.3824,418.6209 L304.5871,418.5186 L301.7928,418.4338 L301.8095,418.6301 L299.0167,418.4467 L296.1786,417.7302 L293.3931,417.633 L290.6087,417.5467 L287.8056,417.2423 L287.7665,416.9737 L285.3879,417.0423 L282.9415,416.6449 L280.4782,416.1316 L278.0534,415.883 L275.604,415.465 L275.7455,415.7563 L273.1624,414.1837 L270.9036,413.2784 L268.5171,412.1104 L266.1033,410.8863 L263.7,409.6838 L263.8253,409.6838 L263.8009,404.6244 L263.1452,399.565 L263.3437,394.5056 L263.2897,389.4462 L263.7,384.3869" style="stroke:#181818;stroke-width:.5"/><path fill="none" d="M263.7,384.3869 L263.7,384.3869 L263.7408,384.4709 L266.0004,385.3775 L268.4991,386.7766 L270.92,388.0154 L273.0847,388.7267 L275.604,390.1681 L275.599,390.1339 L278.017,390.336 L280.4601,390.7104 L282.9206,391.2046 L285.321,391.2859 L287.8056,391.9455 L287.8265,392.1906 L290.5792,391.9046 L293.393,392.3345 L296.2142,392.8516 L298.9921,392.8606 L301.7928,393.1369 L301.7943,393.1672 L304.5895,393.2672 L307.3917,393.5052 L310.1906,393.6766 L312.996,393.975 L315.78,393.8595 L315.789,394.1576 L318.2295,394.2355 L320.664,394.1211 L323.1072,394.2881 L325.5507,394.4684 L327.9816,394.2306 L327.9773,393.9101 L330.3663,394.5634 L332.7414,394.1614 L335.1271,394.5616 L337.5019,394.1356 L339.8855,394.3869 L339.8855,394.3869 L339.8851,394.3564 L342.2707,394.6852 L344.6469,394.3027 L347.0286,394.3399 L349.4107,394.4124 L351.7895,394.2306 L351.7952,394.4155 L354.2298,394.1547 L356.6741,394.2098 L359.1028,393.7537 L361.5547,394.0601 L363.9911,393.8595 L364.0037,394.1028 L366.7988,393.9123 L369.6001,393.8426 L372.3724,393.2115 L375.1659,392.9919 L377.9783,393.1369 L377.9549,392.8617 L380.7735,392.8725 L383.5658,392.5733 L386.3963,392.7238 L389.1615,392.1064 L391.9655,391.9455 L391.9435,391.7946 L394.4205,391.6904 L396.8034,390.9413 L399.2532,390.6507 L401.7684,390.809 L404.1671,390.1681 L404.2517,390.3423 L406.6905,389.3055 L408.8662,387.727 L411.3715,386.827 L413.8049,385.7792 L416.0711,384.3869" style="stroke:#181818;stroke-width:.5"/><text x="273.7" y="411.382" fill="#000" font-family="sans-serif" font-size="14" lengthAdjust="spacing" textLength="132.371">&quot;base de données&quot;</text></g><g id="elem_appli"><polygon fill="#F1F1F1" points="304.82 261.097 304.87 261.146 306.722 258.999 308.866 257.142 310.914 255.191 312.652 252.929 314.82 251.097 314.82 251.019 325.509 250.67 336.197 250.713 346.886 251.029 357.575 250.405 368.263 251.65 378.952 251.097 378.742 251.097 378.886 258.356 379.096 265.616 378.923 272.875 378.975 280.134 378.952 287.394 378.944 287.386 376.994 289.436 375.008 291.45 373.09 293.532 371.11 295.552 368.952 297.394 368.952 298.073 358.263 297.648 347.575 297.857 336.886 298.096 326.197 296.673 315.509 298.072 304.82 297.394 304.721 297.394 304.998 290.134 304.655 282.875 304.797 275.616 305.067 268.356 304.82 261.097" style="stroke:#181818;stroke-width:.5"/><path fill="#F1F1F1" d="M368.9518,261.0969 L369.0179,261.1629 L370.8216,258.9667 L373.0126,257.1576 L375.0774,255.2225 L376.7276,252.8727 L378.9518,251.0969" style="stroke:#181818;stroke-width:.5"/><path fill="#F1F1F1" d="M304.82,261.0969 L304.82,261.3771 L315.5086,260.5444 L326.1973,261.3546 L336.8859,261.6298 L347.5746,260.1457 L358.2632,260.9933 L368.9518,261.0969" style="stroke:#181818;stroke-width:.5"/><path fill="#F1F1F1" d="M368.9518,261.0969 L369.0453,261.0969 L368.7677,268.3562 L369.0377,275.6156 L369.1295,282.875 L368.6348,290.1344 L368.9518,297.3937" style="stroke:#181818;stroke-width:.5"/><text x="319.82" y="284.092" fill="#000" font-family="sans-serif" font-size="14" lengthAdjust="spacing" textLength="34.132">appli</text></g><g id="elem_Développeur"><polygon fill="#F1F1F1" points="58.925 71.243 57.753 72.845 56.366 75.192 54.382 76.773 52.298 77.638 50.636 77.713 48.499 76.632 46.484 75.925 44.954 74.49 44.151 72.848 43.675 71.54 43.209 69.832 42.452 68.362 43.034 66.927 43.543 65.355 45.455 64.111 46.801 62.498 48.466 61.962 50.445 61.501 52.983 61.775 54.374 62.43 55.99 62.728 57.956 64.741 58.641 66.867 58.938 68.317 58.601 70.708" style="stroke:#181818;stroke-width:.5"/><path fill="none" d="M50.8813,77.2969 L51.0682,77.2969 L50.5131,82.6969 L51.0532,88.0969 L51.2366,93.4969 L50.2472,98.8969 L50.8813,104.2969 M37.8813,85.2969 L37.8813,85.2278 L43.0813,84.9178 L48.2813,84.956 L53.4813,85.2363 L58.6813,84.6823 L63.8813,85.2969 M50.8813,104.2969 L51.2532,104.6192 L47.858,106.93 L45.5485,110.1817 L43.3715,113.5483 L40.4237,116.2469 L37.8813,119.2969 M50.8813,104.2969 L50.9272,104.3366 L53.4599,107.2783 L56.2013,110.4008 L58.842,113.4361 L61.6748,116.6378 L63.8813,119.2969" style="stroke:#181818;stroke-width:.5"/><text x="6" y="133.792" fill="#000" font-family="sans-serif" font-size="14" lengthAdjust="spacing" textLength="89.763">Développeur</text></g><g id="elem_c"><polygon fill="pink" points="312.19 80.797 312.19 81.007 322.128 80.383 332.066 80.99 342.004 81.197 351.942 80.084 361.88 80.719 371.817 80.37 381.755 80.413 391.693 80.729 401.631 80.106 411.569 80.797 411.608 80.977 416.474 81.655 421.455 82.859 426.448 84.127 431.362 85.021 436.318 86.112 436.335 86.127 438.36 88.672 440.465 91.283 442.531 93.862 444.671 96.501 446.569 98.945 446.744 99.085 444.696 101.653 442.535 104.131 440.539 106.742 438.551 109.358 436.318 111.778 436.267 111.543 431.415 113.062 426.397 113.808 421.506 115.141 416.484 115.869 411.569 117.094 411.569 117.025 401.631 117.835 391.693 117.045 381.755 117.199 371.817 117.432 361.88 117.51 351.942 117.09 342.004 117.381 332.066 116.521 322.128 117.378 312.19 117.094 312.228 117.272 307.271 116.175 302.333 115.167 297.307 113.747 292.345 112.629 287.441 111.778 287.279 111.649 285.376 109.199 283.29 106.604 281.468 104.22 279.195 101.475 277.19 98.945 277.101 98.874 279.3 96.426 281.117 93.673 283.206 91.138 285.56 88.814 287.441 86.112 287.472 86.254 292.442 85.289 297.318 83.881 302.313 83.027 307.282 82.052 312.19 80.797" style="stroke:red;stroke-width:2"/><text x="287.19" y="103.792" fill="#000" font-family="sans-serif" font-size="14" lengthAdjust="spacing" textLength="149.379">&quot;Identifiants de BDD&quot;</text></g><g id="link_appli_bdd"><path fill="none" d="M341.51,297.6769 L341.7902,297.6815 L340.7905,307.7321 L341.4333,317.81 L341.5413,327.8789 L339.8902,337.9187 L340.5705,347.9972 L339.9384,358.0539 L340.3398,368.1277" style="stroke:#181818;stroke-width:1"/><polygon fill="#181818" points="340.24 374.127 340.303 374.156 340.945 372.282 341.958 370.581 342.85 368.824 343.344 366.881 344.389 365.195 344.371 365.176 343.477 365.879 342.674 366.676 341.934 367.538 340.976 368.175 340.323 369.128 340.456 369.256 339.385 368.168 338.703 367.455 338.067 366.788 337.156 365.855 336.39 365.062 336.411 365.07 337.15 366.87 337.985 368.711 338.773 370.532 339.65 372.39 340.24 374.127" style="stroke:#181818;stroke-width:1"/><text x="341.88" y="340.454" fill="#000" font-family="sans-serif" font-size="13" lengthAdjust="spacing" textLength="103.841">stocke Données</text></g><g id="link_Développeur_code"><path fill="none" d="M96.02,98.9469 L96.02,99.2271 L106.2388,98.3944 L116.4575,99.2046 L126.6763,99.4798 L136.895,97.9957 L147.1138,98.8433 L157.3325,98.3782 L167.5513,98.4355 L177.77,98.9469" style="stroke:#181818;stroke-width:1"/><text x="113.88" y="92.014" fill="#000" font-family="sans-serif" font-size="13" lengthAdjust="spacing" textLength="46.338">Produit</text></g><g id="link_code_Cloud Provider"><path fill="none" d="M213.15,118.8169 L213.4261,118.8647 L214.3847,129.0014 L216.962,139.4183 L219.0122,149.744 L219.3289,159.7697 L221.943,170.193 L223.2638,180.3924 L225.0994,190.6809 L227.2927,201.0314 L229.1613,211.3256 L228.8585,211.2732 L229.8179,213.7599 L229.7135,216.0624 L230.3171,218.4874 L231.007,220.9274 L231.232,223.2869 L231.1945,223.2804 L231.3619,223.8695 L231.418,224.4393 L231.6101,225.0326 L231.7366,225.6146 L231.7318,226.1738 L231.9883,226.2183 L231.8457,225.1852 L231.6693,224.1462 L231.3034,223.0745 L231.2149,222.0507 L230.8319,220.976" style="stroke:#181818;stroke-width:1"/><polygon fill="#181818" points="231.856 226.888 231.923 226.905 232.203 224.944 232.88 223.084 233.428 221.19 233.55 219.19 234.262 217.338 234.24 217.323 233.494 218.18 232.853 219.113 232.288 220.099 231.466 220.904 231.002 221.961 231.109 222.112 229.957 221.138 229.115 220.604 228.311 220.124 227.287 219.331 226.379 218.702 226.398 218.715 227.465 220.334 228.619 222.01 229.731 223.658 230.922 225.359 231.856 226.888" style="stroke:#181818;stroke-width:1"/><text x="225.88" y="180.164" fill="#000" font-family="sans-serif" font-size="13" lengthAdjust="spacing" textLength="91.07">se déploie sur</text></g><g id="link_c_appli"><path fill="none" d="M359.85,117.5169 L360.1284,117.549 L358.1718,127.242 L357.8471,137.1233 L356.9911,146.9432 L354.3873,156.5615 L354.0999,166.4471 L352.5085,176.1822 L351.436,185.9772 L350.7242,195.8138 L348.7693,205.507 L349.2889,215.4857 L346.5913,225.0932 L346.0348,234.9477 L345.1673,244.7664" style="stroke:#181818;stroke-width:1"/><polygon fill="#181818" points="344.48 250.727 344.54 250.762 345.362 248.96 346.537 247.367 347.598 245.705 348.279 243.82 349.485 242.244 349.469 242.224 348.51 242.836 347.632 243.55 346.811 244.336 345.796 244.876 345.053 245.76 345.197 245.875 344.185 244.743 343.595 243.946 343.056 243.19 342.218 242.196 341.537 241.328 341.559 241.335 342.116 243.204 342.771 245.105 343.379 246.991 344.078 248.905 344.48 250.727" style="stroke:#181818;stroke-width:1"/><text x="353.88" y="180.164" fill="#000" font-family="sans-serif" font-size="13" lengthAdjust="spacing" textLength="137.992">Injection d&apos;identifiant</text></g></g></svg>