<svg xmlns="http://www.w3.org/2000/svg" xmlns:xlink="http://www.w3.org/1999/xlink" height="527" contentStyleType="text/css" preserveAspectRatio="none" style="width:587px;height:527px;background:#fff" width="587" version="1.1" viewBox="0 0 587 527" zoomAndPan="magnify"><g><text x="165.943" y="22.995" fill="#000" font-family="sans-serif" font-size="14" font-weight="bold" lengthAdjust="spacing" textLength="241.985">Déploiement d&apos;une application</text><g id="cluster_dépôt git"><polygon fill="none" points="117.38 76.863 117.38 77.073 127.463 76.448 137.547 77.056 147.63 77.263 157.713 76.149 167.797 76.785 177.88 76.436 187.963 76.479 198.047 76.795 208.13 76.171 218.213 77.416 228.297 76.233 238.38 76.665 248.463 77.295 258.547 76.777 268.63 76.931 278.713 76.831 288.797 77.041 298.88 77.102 308.963 77.448 319.047 77.534 329.13 77.542 339.213 77.117 349.297 77.326 359.38 76.863 359.47 77.079 359.642 76.787 360.174 77.365 360.403 77.211 360.862 77.613 361.148 77.595 360.995 77.532 361.273 77.94 361.669 78.397 361.572 78.65 361.766 79.023 361.88 79.363 362.219 79.363 362.296 89.793 361.876 100.223 362.167 110.653 361.308 121.083 362.164 131.513 362.428 141.943 362.325 152.373 362.493 162.803 361.397 173.233 361.88 183.663 361.679 183.58 361.542 183.937 361.569 184.362 361.38 184.698 361.504 185.164 361.148 185.431 361.125 185.377 360.75 185.471 360.47 185.794 360.002 185.665 359.667 185.857 359.38 186.163 359.38 186.812 349.297 186.599 339.213 186.897 329.13 185.841 319.047 186.482 308.963 186.753 298.88 185.69 288.797 186.067 278.713 186.289 268.63 186.815 258.547 186.159 248.463 186.625 238.38 185.609 228.297 185.486 218.213 186.666 208.13 185.446 198.047 186.672 187.963 186.369 177.88 185.895 167.797 185.809 157.713 186.622 147.63 185.863 137.547 186.755 127.463 185.61 117.38 186.163 117.459 186.353 117.088 186.166 116.704 185.945 116.325 185.738 116.058 185.801 115.612 185.431 115.801 185.509 115.518 185.099 115.402 184.758 115.133 184.353 115.247 184.108 114.88 183.663 115.035 183.663 115.053 173.233 114.272 162.803 114.475 152.373 115.411 141.943 115.31 131.513 114.837 121.083 114.558 110.653 114.661 100.223 114.194 89.793 114.88 79.363 115.008 79.416 115.254 79.104 115.335 78.723 115.533 78.391 115.424 77.931 115.612 77.595 115.623 77.622 115.916 77.329 116.356 77.39 116.704 77.232 117.097 77.179 117.38 76.863" style="stroke:#181818;stroke-width:1"/><polygon fill="none" points="344.88 81.863 344.95 81.863 344.742 84.663 344.944 87.463 345.013 90.263 344.642 93.063 344.88 95.863 344.88 95.837 347.28 95.721 349.68 95.735 352.08 95.84 354.48 95.632 356.88 95.863 357.065 95.863 356.67 94.263 356.814 92.663 357.024 91.063 356.851 89.463 356.88 87.863 356.896 87.879 355.673 86.655 354.522 85.505 353.336 84.319 352.218 83.201 350.88 81.863 350.88 82.087 349.68 82.089 348.48 81.948 347.28 82.017 346.08 82.097 344.88 81.863" style="stroke:#181818;stroke-width:1"/><path fill="none" d="M350.88,81.8628 L350.9734,81.8628 L350.6959,83.0628 L350.9659,84.2628 L351.0576,85.4628 L350.5629,86.6628 L350.88,87.8628" style="stroke:#181818;stroke-width:1"/><path fill="none" d="M356.88,87.8628 L356.88,87.9562 L355.68,87.6787 L354.48,87.9487 L353.28,88.0404 L352.08,87.5457 L350.88,87.8628" style="stroke:#181818;stroke-width:1"/><text x="192.514" y="91.858" fill="#000" font-family="sans-serif" font-size="14" font-weight="bold" lengthAdjust="spacing" textLength="72.235">dépôt git</text></g><g id="cluster_Cloud Provider"><path fill="none" d="M338.6654,269.2529 L338.6654,269.2529 L338.6854,269.3442 L341.703,268.3991 L344.8378,267.9889 L347.9345,267.4045 L350.9057,266.2473 L354.0506,265.883 L354.0506,265.883 L354.0482,265.8486 L357.9036,265.4179 L361.7715,265.1608 L365.648,265.0245 L369.4947,264.4721 L373.3831,264.5025 L373.3831,264.5025 L373.3842,264.7486 L376.6162,264.2085 L379.8514,264.3868 L383.0869,264.6527 L386.3203,264.4087 L389.5548,264.4329 L389.5548,264.4329 L389.5594,264.4629 L393.1521,263.855 L396.7661,263.3835 L400.3699,262.8462 L403.9932,262.4345 L407.5525,261.6135 L407.5525,261.6135 L407.603,261.9074 L411.2215,261.2899 L414.8075,260.4829 L418.4412,259.9533 L422.077,259.4368 L425.6422,258.5081 L425.6422,258.5081 L425.6084,258.1893 L429.4965,259.2124 L433.2736,259.1858 L437.135,259.9572 L440.9096,259.9069 L444.7554,260.53 L444.7554,260.53 L444.7492,260.5002 L448.0495,261.5161 L451.2067,261.8352 L454.4483,262.5655 L457.697,263.3303 L460.8945,263.8461 L460.8945,263.8461 L460.9088,264.0305 L464.4028,264.1162 L467.9212,264.517 L471.4001,264.4079 L474.938,265.0594 L478.4367,265.2052 L478.4367,265.2052 L478.463,265.4474 L482.1678,265.8058 L485.8856,266.2844 L489.5425,266.2043 L493.2441,266.5337 L496.9852,267.2261 L496.9852,267.2261 L496.8937,266.9655 L499.9192,266.1675 L502.8417,265.0759 L505.9137,264.4102 L508.7303,263.0174 L511.6987,262.0568 L511.5755,261.967 L513.617,264.6377 L515.1317,266.9247 L517.021,269.4846 L519.2769,272.3114 L520.88,274.6628 L520.88,274.6628 L521.0552,274.7452 L521.4568,275.4 L521.3135,275.7984 L521.8527,276.5179 L522.2432,277.1674 L522.2872,277.6539 L522.2872,277.6539 L522.0772,277.6526 L522.2271,280.4285 L522.3082,283.2039 L522.5244,285.9802 L522.2153,288.7532 L522.1997,291.528 L522.1997,291.528 L522.4039,291.5517 L522.3145,294.6037 L522.6193,297.7015 L523.5,300.8658 L523.3205,303.9075 L523.9963,307.0481 L523.9963,307.0481 L524.2222,307.0612 L523.8728,310.7708 L523.447,314.4759 L523.1937,318.191 L523.339,321.9293 L522.9202,325.6348 L522.9202,325.6348 L522.7874,325.6269 L523.373,328.8637 L523.0553,332.047 L523.7646,335.2911 L523.8956,338.501 L523.8709,341.7017 L523.8709,341.7017 L523.9798,341.702 L523.8819,344.6236 L524.1739,347.5465 L524.1137,350.4682 L523.9063,353.3894 L523.8211,356.311 L523.8211,356.311 L523.9403,356.3132 L523.6974,359.7979 L524.0078,363.293 L523.6924,366.7763 L523.6344,370.2645 L523.4918,373.751 L523.4918,373.751 L523.2228,373.7238 L523.6355,376.9227 L524.3722,380.1544 L524.6504,383.3397 L524.7642,386.5084 L525.106,389.7001 L525.106,389.7001 L524.9642,389.6802 L524.5721,392.7978 L523.9289,395.8801 L523.9759,399.0594 L523.6812,402.1907 L522.9182,405.2562 L522.9182,405.2562 L523.1521,405.2567 L523.22,408.1301 L522.8434,411.0024 L522.936,413.8759 L522.7179,416.7485 L522.8832,419.6221 L522.8832,419.6221 L523.0094,419.6259 L523.0866,422.772 L523.3162,425.9227 L523.0626,429.059 L523.1987,432.2069 L523.3522,435.3553 L523.3522,435.3553 L523.5493,435.3583 L523.658,438.9138 L523.2318,442.4613 L523.4271,446.0182 L523.6333,449.5752 L523.6207,453.129 L523.6207,453.129 L523.3493,453.1217 L523.6943,456.2567 L523.5685,459.3791 L523.3258,462.4984 L523.3504,465.6248 L523.2038,468.7466 L523.2038,468.7466 L523.5259,468.7798 L522.7155,472.1328 L522.6431,475.5618 L522.2801,478.9609 L521.855,482.3535 L521.4538,485.7487 L521.4538,485.7487 L521.5152,485.7611 L522.0132,488.2772 L522.2019,490.7307 L522.8091,493.269 L523.2926,495.7821 L524.0036,498.3414 L524.0211,498.3637 L522.003,499.9545 L519.9984,501.5626 L517.8498,502.9863 L515.8862,504.6469 L513.88,506.2528 L513.88,506.2528 L513.8357,506.2229 L514.459,506.939 L514.7702,507.4443 L514.8008,507.7601 L515.3193,508.4055 L515.7128,508.9663 L515.7128,508.9663 L515.6983,508.7102 L511.9547,508.8819 L508.1975,508.8115 L504.4307,508.5707 L500.641,507.9233 L496.8866,507.9042 L496.8866,507.9042 L496.8935,508.1103 L493.5773,507.6833 L490.2928,508.2114 L486.987,508.0986 L483.6944,508.3837 L480.3946,508.4499 L480.3946,508.4499 L480.3991,508.5566 L476.6062,508.8198 L472.7867,508.4509 L469.0119,509.142 L465.2091,509.1703 L461.4086,509.2516 L461.4086,509.2516 L461.4173,509.4092 L457.682,509.7906 L453.9189,509.6684 L450.1782,509.9509 L446.4342,510.175 L442.6841,510.2875 L442.6841,510.2875 L442.6964,510.3743 L439.4662,510.7418 L436.2927,511.5095 L432.9928,511.383 L429.8481,512.3547 L426.5951,512.5605 L426.5951,512.5605 L426.575,512.2839 L423.3075,512.0832 L420.0561,512.1027 L416.7855,511.8597 L413.4986,511.3909 L410.2443,511.3716 L410.2443,511.3716 L410.3388,511.5293 L408.1303,512.6949 L406.1326,514.2123 L403.9802,515.4714 L401.5865,516.328 L399.55,517.7807 L399.4346,517.6468 L397.6241,516.1089 L395.8764,514.6437 L394.0017,513.0313 L392.0837,511.3686 L390.1079,509.6389 L390.1079,509.6389 L390.0971,509.4873 L386.829,509.6852 L383.5299,509.4484 L380.2093,508.9107 L376.9043,508.5899 L373.6128,508.4601 L373.6128,508.4601 L373.6039,508.2819 L370.0542,508.1873 L366.5082,508.1659 L362.9498,507.8969 L359.3883,507.5642 L355.8437,507.5721 L355.8437,507.5721 L355.9122,507.7776 L352.4877,508.4756 L349.3313,509.9779 L346.0292,511.0432 L342.7299,512.1169 L339.3861,513.0571 L339.631,513.2435 L337.1979,510.2301 L335.0773,507.4545 L333.266,504.9142 L330.7701,501.853 L328.88,499.2528 L328.88,499.2528 L328.8333,499.1599 L329.3614,499.529 L329.8105,499.7407 L330.1837,499.8014 L330.705,500.157 L331.172,500.4044 L331.172,500.4044 L331.4976,500.4632 L330.8518,497.1091 L329.7035,493.6643 L329.3948,490.3711 L328.5318,486.9778 L328.1528,483.6718 L328.1528,483.6718 L328.1411,483.6711 L328.099,480.8317 L327.9715,477.9868 L327.3067,475.1073 L327.5954,472.2892 L327.2341,469.4293 L327.2341,469.4293 L327.2378,469.4295 L326.7643,466.2892 L326.5782,463.1694 L326.7082,460.0723 L326.4507,456.9474 L326.1164,453.817 L326.1164,453.817 L326.1091,453.816 L325.4094,450.6387 L325.5848,447.5759 L324.7465,444.3805 L324.2404,441.2285 L324.0623,438.1195 L324.0623,438.1195 L324.0326,438.1156 L323.8867,434.7818 L323.4625,431.412 L322.7712,428.0077 L322.2536,424.6258 L321.8847,421.2632 L321.8847,421.2632 L321.9602,421.2643 L321.9208,417.9607 L321.5657,414.6528 L321.9286,411.3549 L321.9463,408.0522 L321.6513,404.7451 L321.6513,404.7451 L321.5568,404.729 L320.9127,401.4885 L320.8458,398.3466 L320.0089,395.0733 L319.4491,391.8472 L318.8987,388.6228 L318.8987,388.6228 L319.0311,388.6332 L318.8502,385.5705 L319.6089,382.5814 L319.6049,379.5326 L320.1457,376.5265 L320.0871,373.4733 L320.0871,373.4733 L319.993,373.4547 L320.9873,369.8621 L321.3373,366.142 L322.3596,362.555 L323.1401,358.9201 L323.6966,355.2408 L323.6966,355.2408 L323.5516,355.2287 L324.0958,352.398 L323.9202,349.5072 L324.2033,346.6546 L324.9524,343.841 L324.8884,340.9595 L324.8884,340.9595 L325.1919,340.9788 L325.3334,337.9542 L325.1144,334.9066 L325.6376,331.9064 L325.4507,328.8608 L325.853,325.8529 L325.853,325.8529 L325.8788,325.8548 L326.1397,322.06 L326.3111,318.2583 L326.9876,314.4949 L327.1983,310.6963 L327.289,306.8885 L327.289,306.8885 L327.1469,306.8777 L327.7424,304.0326 L327.7698,301.1439 L327.6905,298.2472 L328.0657,295.3852 L328.3891,292.5193 L328.3891,292.5193 L328.1668,292.448 L327.3687,289.4992 L326.1998,286.4316 L325.2504,283.4344 L324.5727,280.5241 L323.5814,277.5134 L323.5479,277.4716 L326.0248,275.523 L328.461,273.5235 L331.007,271.6611 L333.266,269.4404 L335.88,267.6628 L335.88,267.6628 L335.9153,267.7246 L336.2733,267.694 L337.0594,268.4131 L337.6818,268.8457 L338.2233,269.1364 L338.6654,269.2529" style="stroke:#181818;stroke-width:1"/><text x="366.539" y="285.658" fill="#000" font-family="sans-serif" font-size="14" font-weight="bold" lengthAdjust="spacing" textLength="116.683">Cloud Provider</text></g><g id="elem_code"><polygon fill="#F1F1F1" points="284.5 130.863 284.5 131.073 294.294 130.448 304.088 131.056 313.881 131.262 323.675 130.149 333.469 130.785 343.263 130.863 343.208 130.732 343.567 130.891 343.961 131.135 344.235 131.089 344.748 131.619 345.031 131.595 344.836 131.515 345.116 131.923 345.456 132.357 345.443 132.645 345.637 133.018 345.763 133.363 345.752 133.363 345.822 140.222 345.842 147.082 345.958 153.941 345.986 160.8 345.763 167.66 345.972 167.746 345.695 168.046 345.613 168.426 345.54 168.81 344.955 168.982 345.031 169.427 345.117 169.636 344.639 169.483 344.391 169.885 343.907 169.714 343.608 169.992 343.263 170.16 343.263 170.901 333.469 170.111 323.675 170.265 313.881 170.498 304.088 170.576 294.294 170.156 284.5 170.16 284.537 170.248 284.073 169.837 283.829 169.954 283.509 169.889 283.142 169.711 282.732 169.427 282.921 169.506 282.437 169.012 282.238 168.637 282.101 168.287 282.128 168.006 282 167.66 281.935 167.66 282.227 160.8 281.942 153.941 281.886 147.082 282.076 140.222 282 133.363 281.795 133.278 281.987 132.943 282.493 132.738 282.574 132.358 282.812 132.042 282.732 131.595 282.691 131.496 283.127 131.547 283.515 131.484 283.733 131.01 284.134 130.98 284.5 130.863" style="stroke:#181818;stroke-width:.5"/><polygon fill="#F1F1F1" points="328.763 135.863 328.833 135.863 328.625 138.663 328.827 141.463 328.896 144.263 328.525 147.063 328.763 149.863 328.763 149.837 331.163 149.721 333.563 149.735 335.963 149.84 338.363 149.632 340.763 149.863 340.947 149.863 340.553 148.263 340.697 146.663 340.907 145.063 340.734 143.463 340.763 141.863 340.779 141.879 339.555 140.655 338.405 139.505 337.219 138.319 336.101 137.201 334.763 135.863 334.763 136.087 333.563 136.089 332.363 135.948 331.163 136.017 329.963 136.097 328.763 135.863" style="stroke:#181818;stroke-width:.5"/><path fill="#F1F1F1" d="M334.7627,135.8628 L334.8561,135.8628 L334.5786,137.0628 L334.8486,138.2628 L334.9403,139.4628 L334.4456,140.6628 L334.7627,141.8628" style="stroke:#181818;stroke-width:.5"/><path fill="#F1F1F1" d="M340.7627,141.8628 L340.7627,141.9562 L339.5627,141.6787 L338.3627,141.9487 L337.1627,142.0404 L335.9627,141.5457 L334.7627,141.8628" style="stroke:#181818;stroke-width:.5"/><text x="292" y="156.858" fill="#000" font-family="sans-serif" font-size="14" lengthAdjust="spacing" textLength="33.763">code</text></g><g id="elem_.env.sample"><polygon fill="#ADD8E6" points="133.6 130.863 133.6 131.073 143.652 130.448 153.704 131.056 163.756 131.262 173.808 130.149 183.86 130.785 193.912 130.436 203.964 130.479 214.016 130.795 224.068 130.171 234.12 131.416 244.172 130.863 244.092 130.669 244.501 130.948 244.935 131.289 245.222 131.276 245.595 131.47 245.94 131.595 245.93 131.591 246.142 131.971 246.307 132.333 246.56 132.73 246.732 133.095 246.672 133.363 246.899 133.363 246.757 140.222 246.827 147.082 246.906 153.941 246.432 160.8 246.672 167.66 246.881 167.746 246.435 167.975 246.544 168.435 246.081 168.657 246.065 169.065 245.94 169.427 246.035 169.656 245.58 169.559 245.246 169.753 244.923 169.971 244.579 170.141 244.172 170.16 244.172 170.156 234.12 170.447 224.068 169.587 214.016 170.444 203.964 170.708 193.912 170.604 183.86 170.773 173.808 169.677 163.756 169.507 153.704 169.538 143.652 170.101 133.6 170.16 133.575 170.099 133.333 170.223 132.871 169.813 132.496 169.615 132.215 169.644 131.832 169.427 131.627 169.342 131.526 169.008 131.739 168.803 131.527 168.422 131.473 168.107 131.1 167.66 130.993 167.66 131.206 160.8 131.297 153.941 130.942 147.082 131.068 140.222 131.1 133.363 131.139 133.379 131.447 133.092 131.392 132.655 131.682 132.361 131.515 131.878 131.832 131.595 131.746 131.387 132.25 131.604 132.448 131.081 132.958 131.312 133.273 131.073 133.6 130.863" style="stroke:#add8e6;stroke-width:2"/><polygon fill="#ADD8E6" points="229.672 135.863 229.742 135.863 229.534 138.663 229.737 141.463 229.805 144.263 229.435 147.063 229.672 149.863 229.672 149.837 232.072 149.721 234.472 149.735 236.872 149.84 239.272 149.632 241.672 149.863 241.857 149.863 241.462 148.263 241.606 146.663 241.816 145.063 241.644 143.463 241.672 141.863 241.688 141.879 240.465 140.655 239.314 139.505 238.129 138.319 237.01 137.201 235.672 135.863 235.672 136.087 234.472 136.089 233.272 135.948 232.072 136.017 230.872 136.097 229.672 135.863" style="stroke:#add8e6;stroke-width:2"/><path fill="#ADD8E6" d="M235.6723,135.8628 L235.7657,135.8628 L235.4881,137.0628 L235.7582,138.2628 L235.8499,139.4628 L235.3552,140.6628 L235.6723,141.8628" style="stroke:#add8e6;stroke-width:2"/><path fill="#ADD8E6" d="M241.6723,141.8628 L241.6723,141.9562 L240.4723,141.6787 L239.2723,141.9487 L238.0723,142.0404 L236.8723,141.5457 L235.6723,141.8628" style="stroke:#add8e6;stroke-width:2"/><text x="141.1" y="156.858" fill="#000" font-family="sans-serif" font-size="14" lengthAdjust="spacing" textLength="85.572">.env.sample</text></g><g id="elem_bdd"><path fill="#F1F1F1" d="M352.7,454.9528 L352.7,454.9528 L352.7408,455.0368 L355.0004,453.6309 L357.4991,452.7176 L359.92,451.6438 L362.0847,450.0426 L364.604,449.1715 L364.599,449.1374 L367.017,448.6285 L369.4601,448.2919 L371.9206,448.0752 L374.321,447.4456 L376.8056,447.3942 L376.8265,447.6394 L379.5792,446.8768 L382.393,446.8301 L385.2142,446.8706 L387.9921,446.4031 L390.7928,446.2028 L390.7943,446.2331 L393.5895,446.0441 L396.3917,445.993 L399.1906,445.8753 L401.996,445.8846 L404.78,445.4801 L404.789,445.7782 L407.2295,445.7077 L409.664,445.4448 L412.1072,445.4634 L414.5507,445.4952 L416.9816,445.109 L416.9773,444.7885 L419.3663,445.3793 L421.7414,444.9148 L424.1271,445.2525 L426.5019,444.7641 L428.8855,444.9528 L428.8855,444.9528 L428.8851,444.9224 L431.2707,445.3136 L433.6469,444.9936 L436.0286,445.0933 L438.4107,445.2283 L440.7895,445.109 L440.7952,445.2939 L443.2298,445.1815 L445.6741,445.3851 L448.1028,445.0774 L450.5547,445.5323 L452.9911,445.4801 L453.0037,445.7235 L455.7988,445.822 L458.6001,446.0413 L461.3724,445.6993 L464.1659,445.7688 L466.9783,446.2028 L466.9549,445.9276 L469.7735,446.415 L472.5658,446.5923 L475.3963,447.2194 L478.1615,447.0786 L480.9655,447.3942 L480.9435,447.2433 L483.4205,447.8501 L485.8034,447.8119 L488.2532,448.2323 L490.7684,449.1015 L493.1671,449.1715 L493.2517,449.3457 L495.6905,450.6214 L497.8662,451.3554 L500.3715,452.7679 L502.8049,454.0326 L505.0711,454.9528 L504.6512,454.9528 L504.9859,460.0122 L505.1831,465.0715 L505.6504,470.1309 L505.0674,475.1903 L505.0711,480.2497 L505.0711,480.2497 L505.1609,480.4346 L502.5828,481.1845 L500.178,482.2914 L498.0265,483.9198 L495.4087,484.588 L493.1671,486.0309 L493.1997,486.2548 L490.74,486.4773 L488.2693,486.624 L485.8235,486.9417 L483.4352,487.6546 L480.9655,487.8083 L480.9542,487.6757 L478.1904,488.3086 L475.3498,488.04 L472.5965,488.7965 L469.794,488.9759 L466.9783,488.9997 L466.9839,489.1084 L464.182,489.1652 L461.4001,489.6112 L458.6001,489.7056 L455.7924,489.6529 L452.9911,489.7223 L452.9948,489.8415 L450.5491,489.7387 L448.1202,490.189 L445.6723,490.0138 L443.2322,490.0959 L440.7895,490.0934 L440.786,489.8231 L438.4064,489.9446 L436.031,490.3918 L433.6497,490.3782 L431.2661,490.1993 L428.8855,490.2497 L428.8855,490.2497 L428.8837,490.1065 L426.5035,490.1211 L424.1199,489.8822 L421.7456,490.3402 L419.3667,490.4533 L416.9816,490.0934 L416.9887,490.3273 L414.5506,490.3279 L412.0991,489.8842 L409.6618,489.9095 L407.215,489.6244 L404.78,489.7223 L404.7865,489.8484 L401.9882,489.6873 L399.1978,489.6784 L396.3824,489.1868 L393.5871,489.0845 L390.7928,488.9997 L390.8095,489.1961 L388.0167,489.0126 L385.1786,488.2961 L382.3931,488.199 L379.6087,488.1126 L376.8056,487.8083 L376.7665,487.5396 L374.3879,487.6082 L371.9415,487.2108 L369.4782,486.6975 L367.0534,486.4489 L364.604,486.0309 L364.7455,486.3222 L362.1624,484.7496 L359.9036,483.8443 L357.5171,482.6764 L355.1033,481.4522 L352.7,480.2497 L352.8253,480.2497 L352.8009,475.1903 L352.1452,470.1309 L352.3437,465.0715 L352.2897,460.0122 L352.7,454.9528" style="stroke:#181818;stroke-width:.5"/><path fill="none" d="M352.7,454.9528 L352.7,454.9528 L352.7408,455.0368 L355.0004,455.9434 L357.4991,457.3426 L359.92,458.5813 L362.0847,459.2926 L364.604,460.734 L364.599,460.6999 L367.017,460.9019 L369.4601,461.2763 L371.9206,461.7705 L374.321,461.8519 L376.8056,462.5114 L376.8265,462.7566 L379.5792,462.4706 L382.393,462.9004 L385.2142,463.4175 L387.9921,463.4265 L390.7928,463.7028 L390.7943,463.7331 L393.5895,463.8331 L396.3917,464.0711 L399.1906,464.2425 L401.996,464.5409 L404.78,464.4254 L404.789,464.7236 L407.2295,464.8014 L409.664,464.687 L412.1072,464.854 L414.5507,465.0343 L416.9816,464.7965 L416.9773,464.476 L419.3663,465.1293 L421.7414,464.7273 L424.1271,465.1275 L426.5019,464.7016 L428.8855,464.9528 L428.8855,464.9528 L428.8851,464.9224 L431.2707,465.2511 L433.6469,464.8686 L436.0286,464.9058 L438.4107,464.9783 L440.7895,464.7965 L440.7952,464.9814 L443.2298,464.7206 L445.6741,464.7757 L448.1028,464.3196 L450.5547,464.626 L452.9911,464.4254 L453.0037,464.6688 L455.7988,464.4782 L458.6001,464.4085 L461.3724,463.7774 L464.1659,463.5579 L466.9783,463.7028 L466.9549,463.4276 L469.7735,463.4384 L472.5658,463.1392 L475.3963,463.2897 L478.1615,462.6723 L480.9655,462.5114 L480.9435,462.3605 L483.4205,462.2563 L485.8034,461.5072 L488.2532,461.2167 L490.7684,461.3749 L493.1671,460.734 L493.2517,460.9082 L495.6905,459.8714 L497.8662,458.2929 L500.3715,457.3929 L502.8049,456.3451 L505.0711,454.9528" style="stroke:#181818;stroke-width:.5"/><text x="362.7" y="481.948" fill="#000" font-family="sans-serif" font-size="14" lengthAdjust="spacing" textLength="132.371">&quot;base de données&quot;</text></g><g id="elem_appli"><polygon fill="#F1F1F1" points="393.82 331.663 393.87 331.712 395.722 329.565 397.866 327.708 399.914 325.757 401.652 323.495 403.82 321.663 403.82 321.585 414.509 321.236 425.197 321.279 435.886 321.595 446.575 320.971 457.263 322.216 467.952 321.663 467.742 321.663 467.886 328.922 468.096 336.182 467.923 343.441 467.975 350.7 467.952 357.96 467.944 357.952 465.994 360.002 464.008 362.016 462.09 364.098 460.11 366.118 457.952 367.96 457.952 368.639 447.263 368.214 436.575 368.423 425.886 368.662 415.197 367.238 404.509 368.638 393.82 367.96 393.721 367.96 393.998 360.7 393.655 353.441 393.797 346.182 394.067 338.922 393.82 331.663" style="stroke:#181818;stroke-width:.5"/><path fill="#F1F1F1" d="M457.9518,331.6628 L458.0179,331.7288 L459.8216,329.5326 L462.0126,327.7235 L464.0774,325.7884 L465.7276,323.4386 L467.9518,321.6628" style="stroke:#181818;stroke-width:.5"/><path fill="#F1F1F1" d="M393.82,331.6628 L393.82,331.943 L404.5086,331.1104 L415.1973,331.9205 L425.8859,332.1957 L436.5746,330.7116 L447.2632,331.5592 L457.9518,331.6628" style="stroke:#181818;stroke-width:.5"/><path fill="#F1F1F1" d="M457.9518,331.6628 L458.0453,331.6628 L457.7677,338.9222 L458.0377,346.1815 L458.1295,353.4409 L457.6348,360.7003 L457.9518,367.9597" style="stroke:#181818;stroke-width:.5"/><text x="408.82" y="354.658" fill="#000" font-family="sans-serif" font-size="14" lengthAdjust="spacing" textLength="34.132">appli</text></g><g id="elem_Développeur"><polygon fill="#F1F1F1" points="58.925 122.809 57.753 124.411 56.366 126.758 54.382 128.339 52.298 129.204 50.636 129.279 48.499 128.198 46.484 127.491 44.954 126.056 44.151 124.414 43.675 123.106 43.209 121.398 42.452 119.928 43.034 118.493 43.543 116.92 45.455 115.677 46.801 114.064 48.466 113.528 50.445 113.067 52.983 113.341 54.374 113.996 55.99 114.293 57.956 116.307 58.641 118.433 58.938 119.883 58.601 122.274" style="stroke:#181818;stroke-width:.5"/><path fill="none" d="M50.8813,128.8628 L51.0682,128.8628 L50.5131,134.2628 L51.0532,139.6628 L51.2366,145.0628 L50.2472,150.4628 L50.8813,155.8628 M37.8813,136.8628 L37.8813,136.7937 L43.0813,136.4837 L48.2813,136.5219 L53.4813,136.8022 L58.6813,136.2482 L63.8813,136.8628 M50.8813,155.8628 L51.2532,156.1851 L47.858,158.4959 L45.5485,161.7477 L43.3715,165.1143 L40.4237,167.8129 L37.8813,170.8628 M50.8813,155.8628 L50.9272,155.9025 L53.4599,158.8442 L56.2013,161.9667 L58.842,165.002 L61.6748,168.2038 L63.8813,170.8628" style="stroke:#181818;stroke-width:.5"/><text x="6" y="185.358" fill="#000" font-family="sans-serif" font-size="14" lengthAdjust="spacing" textLength="89.763">Développeur</text></g><g id="elem_c"><polygon fill="pink" points="446.88 132.363 446.897 132.431 451.31 133.292 455.819 134.552 460.297 135.682 464.673 136.384 469.19 137.678 469.169 137.663 470.923 140.162 472.782 142.737 474.716 145.365 476.395 147.81 478.431 150.511 478.58 150.619 476.412 152.955 474.681 155.606 473.003 158.295 471.015 160.761 469.19 163.344 469.195 163.366 464.725 164.397 460.28 165.528 455.822 166.611 451.387 167.786 446.88 168.66 446.932 168.877 442.471 167.817 437.976 166.616 433.531 165.621 429.087 164.635 424.571 163.344 424.376 163.204 422.906 160.91 420.794 158.153 419.171 155.748 417.044 152.981 415.33 150.511 415.312 150.498 417.379 148.089 419.013 145.369 420.903 142.832 422.814 140.311 424.571 137.678 424.603 137.813 429.033 136.614 433.517 135.645 437.912 134.303 442.44 133.518 446.88 132.363" style="stroke:red;stroke-width:2"/><text x="425.33" y="155.358" fill="#000" font-family="sans-serif" font-size="14" lengthAdjust="spacing" textLength="43.101">&quot;.env&quot;</text></g><g id="link_appli_bdd"><path fill="none" d="M430.51,368.2428 L430.7902,368.2474 L429.7905,378.298 L430.4333,388.3759 L430.5413,398.4449 L428.8902,408.4846 L429.5705,418.5631 L428.9384,428.6198 L429.3398,438.6936" style="stroke:#181818;stroke-width:1"/><polygon fill="#181818" points="429.24 444.693 429.303 444.722 429.945 442.848 430.958 441.147 431.85 439.39 432.344 437.447 433.389 435.76 433.371 435.742 432.477 436.445 431.674 437.242 430.934 438.104 429.976 438.741 429.323 439.693 429.456 439.822 428.385 438.734 427.703 438.021 427.067 437.354 426.156 436.421 425.39 435.627 425.411 435.636 426.15 437.436 426.985 439.277 427.773 441.098 428.65 442.956 429.24 444.693" style="stroke:#181818;stroke-width:1"/><text x="430.88" y="411.02" fill="#000" font-family="sans-serif" font-size="13" lengthAdjust="spacing" textLength="103.841">stocke Données</text></g><g id="link_Développeur_code"><path fill="none" d="M70.99,112.1228 L71.0661,112.177 L72.5967,109.5531 L74.5731,107.2471 L76.4044,104.8375 L77.7582,102.0874 L79.773,99.8087 L79.7468,99.7861 L81.6837,97.3086 L83.7523,94.9449 L85.9125,92.6604 L87.7571,90.103 L90.0438,87.9278 L90.2088,88.1103 L92.1991,85.6004 L94.6713,83.6232 L97.2024,81.7111 L99.3913,79.4208 L101.7602,77.3294 L101.7766,77.3548 L104.3764,75.6241 L107.0511,74.0094 L109.6897,72.3387 L112.3972,70.7748 L114.88,68.8628 L114.9792,69.1441 L117.5855,68.229 L120.1278,67.1326 L122.7638,66.3017 L125.4042,65.4833 L127.9055,64.2704 L127.8998,63.95 L130.1205,64.5327 L132.3224,64.0601 L134.5387,64.3898 L136.7402,63.8933 L138.9537,64.074 L138.9495,64.0439 L141.302,64.7245 L143.5553,64.7008 L145.8671,65.0927 L148.1839,65.5194 L150.4652,65.6945 L150.4762,65.8792 L153.348,65.8644 L156.2387,66.1652 L159.0989,65.9555 L162.0045,66.5073 L164.88,66.5528 L164.8976,66.7958 L167.9607,66.5282 L171.0325,66.3812 L174.0639,65.6737 L177.1249,65.3771 L180.2122,65.4446 L180.1693,65.1717 L182.882,64.9982 L185.5464,64.5172 L188.2809,64.4821 L190.8956,63.6857 L193.5816,63.3419 L193.5516,63.1924 L195.9946,62.9613 L198.3094,62.0911 L200.7154,61.6754 L203.2106,61.7044 L205.547,60.9415 L205.5813,61.1321 L207.8289,60.8625 L209.9699,60.0003 L212.2444,59.8804 L214.4899,59.5988 L216.6675,58.9403 L216.65,58.7311 L218.8309,58.7168 L221.006,58.634 L223.1924,58.6858 L225.335,58.2142 L227.5021,58.035 L227.5184,58.24 L229.704,57.9672 L231.9211,58.09 L234.1845,58.7906 L236.3628,58.4274 L238.6097,58.9225 L238.6713,59.1401 L241.0226,59.6862 L243.3531,60.1587 L245.7307,60.7974 L248.2169,61.8203 L250.5493,62.2995 L250.4906,62.1801 L253.3317,63.8481 L255.7731,64.7044 L258.6689,66.4837 L261.3089,67.7432 L263.88,68.8628 L263.9486,68.9474 L266.9949,71.3942 L270.2867,74.1438 L273.3567,76.6199 L276.334,78.9816 L279.3883,81.4383 L279.4791,81.5155 L280.6535,82.9392 L282.2494,84.7215 L283.3686,86.0982 L284.6839,87.6418 L285.9347,89.1305 L285.7133,88.9755 L286.943,90.6779 L288.4396,92.5672 L289.5586,94.1922 L290.5423,95.7224 L291.7137,97.384 L291.5882,97.3151 L293.5022,100.7502 L295.1939,104.0633 L297.4965,107.7118 L299.4968,111.1943 L301.0823,114.4492 L301.2983,114.5392 L302.695,117.7547 L303.6813,120.7993 L305.1007,124.0243 L306.2335,127.1298 L307.72,130.3828" style="stroke:#181818;stroke-width:1"/><text x="165.88" y="56.93" fill="#000" font-family="sans-serif" font-size="13" lengthAdjust="spacing" textLength="46.338">Produit</text></g><g id="link_code_Cloud Provider"><path fill="none" d="M312.8,170.6028 L312.8933,170.6072 L312.3986,175.1916 L312.4508,179.8019 L312.3249,184.4037 L311.6133,188.9778 L311.7125,193.5903 L311.678,193.5891 L311.3566,198.5985 L311.2091,203.6136 L311.1827,208.6328 L310.7394,213.6381 L310.88,218.6628 L311.1261,218.6628 L310.5999,222.0628 L310.7921,225.4628 L311.072,228.8628 L310.8419,232.2628 L310.88,235.6628 L310.9102,235.6659 L311.2438,239.3202 L311.7149,242.9888 L312.1196,246.6504 L312.6508,250.3252 L312.7699,253.9573 L313.0654,253.9977 L313.5747,257.6996 L313.8934,261.3755 L314.4911,265.0895 L315.1018,268.8053 L315.2983,272.4645 L314.9819,272.4134 L316.1758,276.0987 L316.3278,279.6156 L317.2719,283.2606 L317.4003,286.7737 L318.1972,290.3949 L318.1673,290.3896 L318.8227,292.1528 L318.7778,293.792 L319.1461,295.5044 L319.5492,297.2229 L319.7019,298.8971 L319.8839,298.9305 L319.8505,299.7152 L320.1281,300.557 L319.9026,301.3065 L320.4274,302.1937 L320.4534,302.9893 L320.6929,303.0344 L320.5009,302.2466 L320.4277,301.4813 L319.8023,300.612 L319.5817,299.8189 L319.7198,299.0933" style="stroke:#181818;stroke-width:1"/><polygon fill="#181818" points="320.827 304.99 320.895 305.006 321.147 303.042 321.798 301.172 322.319 299.271 322.412 297.269 323.098 295.407 323.076 295.392 322.341 296.26 321.715 297.202 321.163 298.195 320.353 299.012 319.904 300.076 320.009 300.228 318.852 299.264 317.999 298.745 317.184 298.279 316.153 297.498 315.235 296.883 315.254 296.896 316.345 298.498 317.521 300.16 318.656 301.793 319.869 303.48 320.827 304.99" style="stroke:#181818;stroke-width:1"/><text x="311.88" y="231.73" fill="#000" font-family="sans-serif" font-size="13" lengthAdjust="spacing" textLength="91.07">se déploie sur</text></g><g id="link_c_appli"><path fill="none" d="M445.43,168.9128 L445.7093,168.936 L444.0673,178.629 L444.0625,188.4583 L443.5246,198.2431 L441.2335,207.8821 L441.266,217.7144 L439.9905,227.4379 L439.2354,237.2047 L438.8423,247.0016 L437.2021,256.6948 L438.0442,266.5945 L435.659,276.2256 L435.4215,286.0355 L435.4461,295.8671 L433.9461,305.572 L433.2479,315.3435" style="stroke:#181818;stroke-width:1"/><polygon fill="#181818" points="432.75 321.323 432.811 321.356 433.575 319.529 434.7 317.899 435.707 316.205 436.328 314.299 437.483 312.686 437.466 312.666 436.528 313.308 435.673 314.05 434.877 314.861 433.88 315.433 433.165 316.34 433.306 316.459 432.274 315.341 431.653 314.57 431.082 313.842 430.22 312.867 429.511 312.022 429.532 312.029 430.148 313.879 430.863 315.762 431.529 317.629 432.286 319.527 432.75 321.323" style="stroke:#181818;stroke-width:1"/><text x="441.88" y="231.73" fill="#000" font-family="sans-serif" font-size="13" lengthAdjust="spacing" textLength="137.992">Injection d&apos;identifiant</text></g></g></svg>