<svg xmlns="http://www.w3.org/2000/svg" xmlns:xlink="http://www.w3.org/1999/xlink" height="708" contentStyleType="text/css" preserveAspectRatio="none" style="width:437px;height:708px;background:#fff" width="437" version="1.1" viewBox="0 0 437 708" zoomAndPan="magnify"><g><text x="91.003" y="22.995" fill="#000" font-family="sans-serif" font-size="14" font-weight="bold" lengthAdjust="spacing" textLength="241.985">Déploiement d&apos;une application</text><g id="cluster_dépôt git"><polygon fill="none" points="9.5 182.087 9.5 182.297 19.474 181.673 29.447 182.28 39.421 182.487 49.395 181.374 59.368 182.009 69.342 181.66 79.316 181.703 89.29 182.019 99.263 181.395 109.237 182.641 119.21 181.457 129.184 181.889 139.158 182.519 149.132 182.001 159.105 182.155 169.079 182.055 179.053 182.265 189.026 182.326 199 182.673 208.974 182.758 218.947 182.766 228.921 182.341 238.895 182.55 248.868 182.789 258.842 181.366 268.816 182.765 278.789 181.79 288.763 182.621 298.737 181.592 308.711 182.018 318.684 182.828 328.658 182.038 338.632 182.192 348.605 182.425 358.579 182.503 368.553 182.083 378.526 182.374 388.5 182.087 388.427 181.911 388.89 182.321 389.277 182.549 389.617 182.663 389.992 182.861 390.268 182.819 390.119 182.757 390.213 183.089 390.369 183.447 390.689 183.872 390.793 184.208 391 184.587 391.681 184.587 390.825 194.065 390.657 203.542 391.228 213.02 390.333 222.498 390.481 231.976 391.649 241.453 391.436 250.931 391.735 260.409 391 269.887 390.901 269.846 390.952 270.281 390.889 270.669 390.415 270.887 390.385 271.289 390.268 271.655 390.284 271.693 389.997 272.002 389.56 271.946 389.266 272.236 388.783 272.07 388.5 272.387 388.5 271.71 378.526 272.89 368.553 271.67 358.579 272.896 348.605 272.594 338.632 272.119 328.658 272.033 318.684 272.846 308.711 272.087 298.737 272.979 288.763 271.834 278.789 273.004 268.816 272.871 258.842 272.632 248.868 272.434 238.895 273.113 228.921 273 218.947 272.556 208.974 272.655 199 272.257 189.026 273.103 179.053 272.542 169.079 272.559 159.105 271.779 149.132 271.982 139.158 272.918 129.184 272.817 119.21 272.344 109.237 272.065 99.263 272.168 89.29 271.701 79.316 272.802 69.342 273.126 59.368 272.913 49.395 273.082 39.421 272.25 29.447 272.474 19.474 271.999 9.5 272.387 9.536 272.474 9.178 272.316 8.863 272.264 8.41 271.877 8.069 271.76 7.732 271.655 7.869 271.711 7.761 271.373 7.282 270.882 7.233 270.569 7.192 270.26 7 269.887 6.389 269.887 7.353 260.409 7.258 250.931 6.899 241.453 7.142 231.976 7.729 222.498 6.687 213.02 7.315 203.542 7.286 194.065 7 184.587 7.036 184.602 7.19 184.251 7.328 183.894 7.247 183.447 7.462 183.121 7.732 182.819 7.673 182.677 8.094 182.692 8.451 182.553 8.813 182.43 9.109 182.144 9.5 182.087" style="stroke:#181818;stroke-width:1"/><polygon fill="none" points="374 187.087 374.07 187.087 373.862 189.887 374.064 192.687 374.133 195.487 373.762 198.287 374 201.087 374 201.061 376.4 200.945 378.8 200.959 381.2 201.064 383.6 200.856 386 201.087 386.185 201.087 385.79 199.487 385.934 197.887 386.144 196.287 385.971 194.687 386 193.087 386.016 193.103 384.793 191.879 383.642 190.729 382.456 189.543 381.338 188.425 380 187.087 380 187.311 378.8 187.313 377.6 187.172 376.4 187.241 375.2 187.321 374 187.087" style="stroke:#181818;stroke-width:1"/><path fill="none" d="M380,187.0869 L380.0934,187.0869 L379.8159,188.2869 L380.0859,189.4869 L380.1776,190.6869 L379.6829,191.8869 L380,193.0869" style="stroke:#181818;stroke-width:1"/><path fill="none" d="M386,193.0869 L386,193.1803 L384.8,192.9027 L383.6,193.1728 L382.4,193.2645 L381.2,192.7698 L380,193.0869" style="stroke:#181818;stroke-width:1"/><text x="148.26" y="197.082" fill="#000" font-family="sans-serif" font-size="14" font-weight="bold" lengthAdjust="spacing" textLength="72.235">dépôt git</text></g><g id="cluster_Cloud Provider"><path fill="none" d="M198.001,341.5704 L198.001,341.5704 L198.063,341.6403 L200.5284,339.0837 L203.357,336.9368 L206.0674,334.6565 L208.3887,331.9373 L211.2485,329.8256 L211.2293,329.7969 L214.0873,331.6351 L217.0421,333.6181 L220.0641,335.7017 L222.8544,337.4385 L225.9692,339.6611 L225.9692,339.6611 L226.1306,339.8469 L227.8951,337.6178 L230.1307,335.9311 L232.4237,334.3106 L234.3824,332.305 L236.5169,330.502 L236.5349,330.5265 L238.7634,332.1402 L241.0736,333.8653 L243.3443,335.5367 L245.6902,337.3106 L247.7913,338.7502 L247.7913,338.7502 L247.9805,338.9808 L250.6882,336.7642 L253.2739,334.399 L256.0382,332.2515 L258.8109,330.1141 L261.3183,327.6535 L261.1337,327.3915 L264.3524,329.9157 L266.9632,331.5771 L270.0362,333.8944 L272.6331,335.5363 L275.6202,337.7318 L275.6202,337.7318 L275.6027,337.7069 L278.1638,336.3343 L280.3138,334.3811 L282.7065,332.7705 L285.1195,331.1886 L287.3855,329.3993 L287.5034,329.5419 L289.607,331.2349 L291.912,333.1715 L293.8912,334.7139 L296.3564,336.8444 L298.4984,338.5839 L298.4984,338.5839 L298.6316,338.7879 L301.3851,336.936 L304.2047,335.1854 L306.7172,332.9641 L309.4548,331.0879 L312.3919,329.5173 L312.2196,329.3015 L314.9682,331.5676 L317.5226,333.5905 L320.3587,335.966 L322.7138,337.7394 L325.3548,339.8708 L325.3548,339.8708 L325.2579,339.7531 L327.9735,337.844 L330.2745,335.4318 L332.8704,333.3774 L335.7546,331.6728 L338.1253,329.3451 L338.224,329.5117 L341.1393,331.3129 L343.7477,332.596 L346.7406,334.528 L349.6497,336.3187 L352.3636,337.7798 L352.3636,337.7798 L352.2418,337.6088 L354.6357,336.1099 L356.9898,334.555 L359.4222,333.1101 L361.55,331.2374 L363.8479,329.6037 L363.9737,329.7663 L365.9276,331.1339 L368.1244,332.8154 L370.6757,334.9554 L372.5742,336.2512 L374.9994,338.2282 L374.9994,338.2282 L375.0985,338.4315 L378.6075,336.5717 L382.083,334.6431 L385.6342,332.8697 L389.3603,331.4553 L392.8389,329.5329 L392.7393,329.4447 L395.668,332.6782 L397.9195,335.3116 L400.9409,338.6273 L403.5289,341.5588 L406,344.3869 L406,344.3869 L406.0744,344.4663 L406.6356,344.9842 L407.4632,345.7865 L408.0501,346.3318 L408.5363,346.7697 L409.1061,347.2968 L409.1061,347.2968 L409.2095,347.356 L410.4805,349.7539 L412.2316,352.427 L413.4397,354.7888 L414.8712,357.2787 L416.2293,359.7265 L416.0114,359.5664 L414.3875,361.9287 L413.0261,364.4839 L411.2932,366.7662 L409.4273,368.9506 L407.746,371.2708 L407.746,371.2708 L407.6421,371.1722 L409.3833,373.0039 L410.9406,374.6611 L413.0035,376.798 L414.8162,378.6975 L416.2857,380.2713 L416.4998,380.3656 L415.5686,382.6669 L414.2305,384.789 L413.3218,387.1002 L412.1288,389.2863 L411.2867,391.6268 L411.2867,391.6268 L411.3854,391.7055 L413.1925,393.9763 L415.1186,396.3422 L416.667,398.4065 L418.5201,400.714 L420.3868,403.0324 L420.5524,403.1393 L419.0158,405.6208 L417.0297,407.8121 L415.5659,410.3406 L414.1111,412.875 L412.4726,415.2906 L412.4726,415.2906 L412.2433,415.1452 L414.2357,417.9449 L415.8305,420.4924 L417.3264,422.9771 L419.0482,425.6052 L420.6254,428.1414 L420.8752,428.3475 L418.5815,430.4012 L416.8602,432.927 L414.9136,435.2669 L412.9187,437.5671 L410.9425,439.8826 L410.9425,439.8826 L410.9945,439.9174 L412.7514,442.554 L414.2458,445.0153 L416.0953,447.7139 L417.8398,450.3424 L419.7773,453.0998 L419.8003,453.1164 L417.9429,455.6972 L416.1033,458.2908 L414.0742,460.7471 L412.2885,463.3798 L410.4467,465.9718 L410.4467,465.9718 L410.4083,465.9347 L412.3358,467.9124 L413.9926,469.6282 L415.4061,471.1086 L417.2428,472.9984 L418.9709,474.7832 L418.7376,474.6765 L418.0671,477.0661 L417.1761,479.3549 L416.1298,481.5726 L414.7134,483.6209 L413.869,485.931 L413.869,485.931 L414.0413,486.0443 L415.481,488.622 L417.7191,491.7246 L419.4215,494.475 L421.4565,497.444 L423.3085,500.2927 L423.3858,500.3664 L421.0883,502.925 L418.3328,505.047 L416.3453,507.9011 L413.8776,510.2975 L411.4482,512.7304 L411.4482,512.7304 L411.577,512.8217 L413.4004,515.2925 L414.8125,517.4715 L416.5552,519.8851 L418.2502,522.2647 L419.854,524.5797 L419.926,524.6297 L418.196,526.9659 L416.7981,529.5327 L414.6585,531.5842 L413.4297,534.2685 L411.5658,536.5116 L411.5658,536.5116 L411.2884,536.508 L411.3769,540.4753 L411.686,544.4454 L411.7321,548.4121 L411.5517,552.3759 L411.822,556.3455 L411.822,556.3455 L411.9802,556.4392 L413.3662,558.9058 L415.105,561.5815 L416.5849,564.1037 L417.661,566.3866 L419.335,569.0239 L419.2036,568.9055 L417.3192,571.1749 L415.506,573.5087 L413.5484,575.7123 L411.5416,577.8715 L409.469,579.9714 L409.469,579.9714 L409.3446,579.8841 L411.5064,582.7069 L413.3113,585.2792 L414.8694,587.6784 L416.6055,590.2024 L418.4984,592.8365 L418.3398,592.7549 L416.9755,595.5881 L415.6765,598.4549 L414.1571,601.2084 L412.581,603.9326 L411.308,606.8128 L411.308,606.8128 L411.4913,606.9282 L412.6434,609.1003 L414.5131,611.724 L415.9928,614.1024 L417.4801,616.4854 L418.8482,618.7935 L419.0917,618.9817 L417.0302,620.9665 L415.2793,623.1916 L413.8358,625.6542 L411.7119,627.5908 L410.1901,629.993 L410.1901,629.993 L410.1034,629.9355 L411.6688,632.188 L413.0873,634.3433 L414.3648,636.4051 L415.9176,638.6492 L417.3693,640.8265 L417.6437,641.0115 L416.1553,643.1428 L414.2435,644.9888 L413.0392,647.3116 L411.3679,649.3197 L410.1042,651.6026 L410.1042,651.6026 L410.093,651.5994 L411.2592,655.3336 L412.343,659.0449 L412.9081,662.6117 L414.3937,666.4348 L415.2517,670.0832 L415.2537,670.0863 L411.8702,671.9128 L408.6398,673.9833 L405.5778,676.3224 L402.3093,678.3322 L399,680.2769 L399,680.2769 L398.9928,680.2758 L398.7984,680.8764 L399.4773,681.6047 L399.1447,682.1851 L399.1435,682.8139 L399.4697,683.4906 L399.4697,683.4906 L399.4541,683.4651 L397.3843,685.0737 L395.1682,686.4429 L392.8114,687.5824 L390.5461,688.8712 L388.359,690.288 L388.4059,690.3471 L386.3706,688.7326 L384.1389,686.8709 L382.3538,685.5715 L380.3539,684.0017 L378.1596,682.187 L378.1596,682.187 L378.0904,682.1206 L375.5902,684.5873 L373.5122,687.4596 L370.8708,689.7908 L368.4322,692.3167 L366.0004,694.8491 L366.0551,694.9702 L362.6829,693.1413 L359.6989,692.1712 L356.3998,690.504 L353.3258,689.3348 L350.0041,687.6177 L350.0041,687.6177 L349.9478,687.54 L347.4502,689.6921 L344.5673,691.3122 L342.0864,693.4873 L339.4609,695.4628 L336.7015,697.2535 L336.6158,697.1359 L334.1423,695.4481 L331.2432,693.1769 L328.6154,691.2774 L326.2631,689.7559 L323.43,687.575 L323.43,687.575 L323.6012,687.8264 L321.3177,689.3201 L318.8307,690.5153 L316.7624,692.3251 L314.2936,693.547 L312.1572,695.2567 L312.1715,695.2782 L309.888,693.741 L307.5547,692.1293 L305.5027,690.9388 L303.1913,689.3598 L300.813,687.6808 L300.813,687.6808 L300.7346,687.5617 L298.2591,689.6451 L295.4699,691.2528 L292.6219,692.7712 L290.0248,694.6701 L287.3991,696.5256 L287.2535,696.3431 L284.8482,694.4736 L282.2001,692.2997 L279.6957,690.306 L277.3692,688.5353 L274.8374,686.5071 L274.8374,686.5071 L274.811,686.4606 L272.0019,688.0826 L269.1607,689.6481 L266.4061,691.3664 L263.4252,692.6851 L260.7241,694.498 L260.7696,694.5526 L258.0207,692.1678 L255.8243,690.4462 L253.4168,688.4711 L250.9047,686.3705 L248.2642,684.1158 L248.2642,684.1158 L248.348,684.2528 L245.7955,685.7268 L243.2622,687.2322 L240.576,688.4876 L238.3149,690.4376 L235.698,691.8065 L235.789,691.9213 L233.3458,689.9237 L231.0767,688.1457 L228.7108,686.2457 L226.5186,684.5648 L224.1486,682.6596 L224.1486,682.6596 L224.3017,682.9205 L221.9154,683.7873 L219.9467,685.3661 L217.6676,686.4156 L215.4487,687.5677 L213.3803,688.9765 L213.3699,688.7848 L211.4705,688.7931 L209.581,688.9862 L207.6982,689.3006 L205.8095,689.5083 L203.9086,689.4899 L204.0504,689.7031 L202.4342,688.5958 L200.578,687.1276 L199.3277,686.5705 L197.7172,685.4718 L196.0197,684.2424 L196.2304,684.358 L195.0191,682.1609 L193.355,679.7152 L192.3075,677.608 L191.327,675.5376 L190,673.2769 L190,673.2769 L189.7883,673.2454 L189.9724,673.3887 L190.0647,673.5183 L190.1962,673.6537 L190.0906,673.7539 L190.0881,673.8694 L190.0881,673.8694 L190.357,674.0625 L188.769,671.9334 L187.2454,669.8503 L185.4905,667.6012 L184.3401,665.7863 L182.7502,663.6557 L182.5507,663.4965 L184.4252,661.7743 L185.8904,659.7257 L187.5605,657.8404 L188.9949,655.767 L190.594,653.8252 L190.594,653.8252 L190.5246,653.7724 L188.3192,650.9789 L186.4929,648.4735 L184.3067,645.6946 L182.4564,643.1711 L180.5308,640.5903 L180.6939,640.6966 L182.407,637.844 L183.9953,634.91 L186.0712,632.2939 L187.8204,629.4648 L189.6123,626.6635 L189.6123,626.6635 L189.7785,626.8386 L187.8019,624.9623 L185.6743,622.9271 L183.6076,620.956 L181.6135,619.0612 L179.6958,617.2471 L179.6932,617.2458 L181.1351,614.9025 L181.7662,612.1752 L183.1414,609.8002 L184.4849,607.4103 L185.5483,604.8877 L185.5483,604.8877 L185.823,605.0617 L184.0828,602.4988 L182.3837,599.962 L180.636,597.3944 L179.2089,595.0299 L177.823,592.6914 L177.7419,592.6353 L179.5901,590.403 L181.2439,588.036 L182.7707,585.5813 L184.3461,583.1601 L186.0376,580.8193 L186.0376,580.8193 L185.8075,580.5972 L183.9961,578.7023 L182.0113,576.64 L180.0076,574.5595 L177.7379,572.2222 L175.6237,570.035 L175.6555,570.0509 L176.8818,567.3116 L178.4135,564.7256 L179.4736,561.9028 L181.2107,559.42 L182.3513,556.6376 L182.3513,556.6376 L182.2155,556.6321 L182.2751,552.6595 L182.784,548.705 L183.0388,544.7403 L183.0141,540.7643 L183.148,536.7947 L183.148,536.7947 L183.1096,536.7569 L181.126,534.7459 L178.9963,532.5909 L176.9022,530.4708 L174.8846,528.4264 L172.7884,526.3044 L172.6555,526.2403 L174.2252,523.7236 L175.6253,521.1252 L176.4894,518.2682 L177.8179,515.6353 L179.1926,513.0246 L179.1926,513.0246 L179.0145,512.9166 L177.6859,510.445 L175.9634,507.7347 L174.6119,505.2492 L172.6914,502.4189 L171.2088,499.8539 L171.0897,499.7478 L173.3557,497.6411 L175.231,495.1865 L177.4425,493.0312 L179.4951,490.7344 L181.4507,488.3513 L181.4507,488.3513 L181.609,488.4629 L179.6233,485.8857 L178.1801,483.691 L176.6912,481.4641 L174.6484,478.8465 L173.1944,476.6442 L173.377,476.7741 L174.732,474.2219 L176.5723,472.015 L178.4126,469.808 L179.6085,467.1426 L181.4974,464.9702 L181.4974,464.9702 L181.778,465.126 L180.0367,462.377 L178.5103,459.7472 L177.4909,457.3989 L175.5092,454.5165 L174.3462,452.0884 L174.5327,452.2826 L176.3479,449.9186 L178.6861,448.0991 L180.9468,446.1989 L182.8015,443.8761 L184.9725,441.8825 L184.9725,441.8825 L184.8069,441.7896 L183.4039,439.2625 L182.054,436.7653 L180.8155,434.3304 L179.0616,431.6066 L177.853,429.1885 L178.0275,429.3341 L179.9107,427.1144 L181.3437,424.519 L183.3997,422.4435 L185.1556,420.1175 L187.1787,418.0145 L187.1787,418.0145 L187.2437,418.0547 L185.4437,415.4762 L184.2979,413.3021 L182.9162,410.9822 L181.2962,408.515 L179.8486,406.1543 L179.9026,406.1978 L181.601,403.9852 L183.4292,401.8771 L185.3396,399.8352 L187.0663,397.6454 L188.5859,395.2891 L188.5859,395.2891 L188.682,395.3609 L186.547,392.5495 L184.5602,389.8489 L182.4717,387.0722 L180.4296,384.3302 L178.3048,381.5264 L178.4659,381.6508 L180.1475,378.6085 L182.6566,376.2051 L184.7825,373.5058 L186.4634,370.4629 L188.8042,367.9295 L188.8042,367.9295 L189.0694,368.0207 L187.6214,364.3422 L186.2693,360.6967 L184.8152,357.0162 L183.7076,353.4547 L182.6069,349.8956 L182.7888,350.1049 L185.3145,347.1971 L188.5231,345.075 L191.1762,342.3137 L194.2135,339.9946 L197,337.3869 L197,337.3869 L196.7871,337.3359 L197.0989,338.1993 L197.6937,339.1305 L197.7085,339.9228 L197.7161,340.7135 L198.001,341.5704" style="stroke:#181818;stroke-width:1"/><text x="239.659" y="355.382" fill="#000" font-family="sans-serif" font-size="14" font-weight="bold" lengthAdjust="spacing" textLength="116.683">Cloud Provider</text></g><g id="elem_code"><polygon fill="#F1F1F1" points="156.62 217.087 156.62 217.297 166.414 216.673 176.208 217.28 186.001 217.487 195.795 216.374 205.589 217.009 215.383 217.087 215.328 216.956 215.687 217.115 216.081 217.359 216.355 217.313 216.868 217.843 217.15 217.819 216.956 217.739 217.236 218.147 217.576 218.581 217.563 218.869 217.757 219.242 217.883 219.587 217.872 219.587 217.942 226.446 217.962 233.306 218.078 240.165 218.106 247.024 217.883 253.884 218.092 253.97 217.815 254.27 217.733 254.65 217.66 255.034 217.075 255.206 217.15 255.651 217.237 255.861 216.759 255.707 216.511 256.109 216.027 255.938 215.727 256.216 215.383 256.384 215.383 257.125 205.589 256.335 195.795 256.489 186.001 256.722 176.208 256.8 166.414 256.38 156.62 256.384 156.657 256.472 156.193 256.061 155.949 256.178 155.629 256.113 155.262 255.935 154.852 255.651 155.041 255.73 154.557 255.236 154.358 254.861 154.221 254.512 154.248 254.23 154.12 253.884 154.054 253.884 154.347 247.024 154.062 240.165 154.006 233.306 154.196 226.446 154.12 219.587 153.915 219.502 154.107 219.167 154.613 218.963 154.694 218.582 154.932 218.266 154.852 217.819 154.811 217.72 155.246 217.771 155.635 217.708 155.853 217.234 156.254 217.204 156.62 217.087" style="stroke:#181818;stroke-width:.5"/><polygon fill="#F1F1F1" points="200.883 222.087 200.953 222.087 200.745 224.887 200.947 227.687 201.016 230.487 200.645 233.287 200.883 236.087 200.883 236.061 203.283 235.945 205.683 235.959 208.083 236.064 210.483 235.856 212.883 236.087 213.067 236.087 212.673 234.487 212.817 232.887 213.027 231.287 212.854 229.687 212.883 228.087 212.899 228.103 211.675 226.879 210.525 225.729 209.339 224.543 208.221 223.425 206.883 222.087 206.883 222.311 205.683 222.313 204.483 222.172 203.283 222.241 202.083 222.321 200.883 222.087" style="stroke:#181818;stroke-width:.5"/><path fill="#F1F1F1" d="M206.8827,222.0869 L206.9761,222.0869 L206.6986,223.2869 L206.9686,224.4869 L207.0603,225.6869 L206.5656,226.8869 L206.8827,228.0869" style="stroke:#181818;stroke-width:.5"/><path fill="#F1F1F1" d="M212.8827,228.0869 L212.8827,228.1803 L211.6827,227.9027 L210.4827,228.1728 L209.2827,228.2645 L208.0827,227.7698 L206.8827,228.0869" style="stroke:#181818;stroke-width:.5"/><text x="164.12" y="243.082" fill="#000" font-family="sans-serif" font-size="14" lengthAdjust="spacing" textLength="33.763">code</text></g><g id="elem_c"><polygon fill="#ADD8E6" points="287.76 218.587 287.76 218.797 298.255 218.173 308.751 218.78 319.247 218.987 329.742 217.874 340.238 218.587 340.232 218.561 345.157 219.511 350.11 220.588 355.082 221.754 359.988 222.614 364.986 223.902 365.13 224.018 366.872 226.338 369.035 228.994 371.25 231.692 373.165 234.151 375.238 236.735 375.255 236.75 373.179 239.295 371.183 241.906 369.149 244.485 367.189 247.124 364.986 249.568 365.033 249.787 360.084 250.853 355.105 251.777 350.17 252.909 345.236 254.049 340.238 254.884 340.238 254.163 329.742 255.562 319.247 254.587 308.751 255.418 298.255 254.389 287.76 254.884 287.755 254.861 282.862 254.062 277.857 252.742 272.918 251.729 267.985 250.742 263.011 249.568 263.12 249.655 260.96 247.001 258.986 244.495 256.711 241.749 254.884 239.361 252.76 236.735 252.903 236.849 254.926 234.261 257.02 231.73 258.785 228.935 260.791 226.333 263.011 223.902 262.968 223.7 267.957 222.82 272.897 221.712 277.908 220.935 282.798 219.593 287.76 218.587" style="stroke:#add8e6;stroke-width:2"/><text x="262.76" y="241.582" fill="#000" font-family="sans-serif" font-size="14" lengthAdjust="spacing" textLength="102.478">&quot;secrets.yaml&quot;</text></g><g id="elem_.sops.yaml"><polygon fill="#ADD8E6" points="58.33 218.587 58.33 218.657 63.396 218.449 68.463 218.651 73.529 218.72 78.596 218.349 83.662 218.587 83.657 218.561 88.582 219.511 93.535 220.588 98.507 221.754 103.413 222.614 108.411 223.902 108.555 224.018 110.297 226.338 112.46 228.994 114.674 231.692 116.589 234.151 118.662 236.735 118.68 236.75 116.603 239.295 114.608 241.906 112.574 244.485 110.614 247.124 108.411 249.568 108.458 249.787 103.509 250.853 98.529 251.777 93.594 252.909 88.661 254.049 83.662 254.884 83.662 254.643 78.596 255.11 73.529 254.785 68.463 255.062 63.396 254.719 58.33 254.884 58.325 254.861 53.432 254.062 48.427 252.742 43.488 251.729 38.555 250.742 33.581 249.568 33.69 249.655 31.53 247.001 29.556 244.495 27.281 241.749 25.454 239.361 23.33 236.735 23.473 236.849 25.496 234.261 27.59 231.73 29.355 228.935 31.361 226.333 33.581 223.902 33.538 223.7 38.527 222.82 43.467 221.712 48.478 220.935 53.368 219.593 58.33 218.587" style="stroke:#add8e6;stroke-width:2"/><text x="33.33" y="241.582" fill="#000" font-family="sans-serif" font-size="14" lengthAdjust="spacing" textLength="75.332">.sops.yaml</text></g><g id="elem_bdd"><path fill="#F1F1F1" d="M215.81,628.9769 L215.81,628.9769 L215.8508,629.0609 L218.1104,627.655 L220.6091,626.7416 L223.03,625.6679 L225.1947,624.0667 L227.714,623.1956 L227.709,623.1614 L230.127,622.6526 L232.5701,622.316 L235.0306,622.0992 L237.431,621.4697 L239.9156,621.4183 L239.9365,621.6635 L242.6892,620.9009 L245.503,620.8541 L248.3242,620.8947 L251.1021,620.4272 L253.9028,620.2269 L253.9043,620.2572 L256.6995,620.0682 L259.5017,620.0171 L262.3006,619.8994 L265.106,619.9087 L267.89,619.5042 L267.899,619.8023 L270.3395,619.7318 L272.774,619.4689 L275.2172,619.4875 L277.6607,619.5193 L280.0916,619.1331 L280.0873,618.8126 L282.4763,619.4034 L284.8514,618.9389 L287.2371,619.2766 L289.6119,618.7881 L291.9955,618.9769 L291.9955,618.9769 L291.9951,618.9464 L294.3807,619.3377 L296.7569,619.0177 L299.1386,619.1174 L301.5207,619.2524 L303.8995,619.1331 L303.9052,619.318 L306.3398,619.2056 L308.7841,619.4092 L311.2128,619.1015 L313.6647,619.5563 L316.1011,619.5042 L316.1137,619.7475 L318.9088,619.8461 L321.7101,620.0654 L324.4824,619.7234 L327.2759,619.7929 L330.0883,620.2269 L330.0649,619.9517 L332.8835,620.4391 L335.6758,620.6164 L338.5063,621.2435 L341.2715,621.1026 L344.0755,621.4183 L344.0535,621.2674 L346.5305,621.8741 L348.9134,621.8359 L351.3632,622.2564 L353.8784,623.1256 L356.2771,623.1956 L356.3617,623.3698 L358.8005,624.6455 L360.9762,625.3795 L363.4815,626.792 L365.9149,628.0567 L368.1811,628.9769 L367.7612,628.9769 L368.0959,634.0363 L368.2931,639.0956 L368.7604,644.155 L368.1774,649.2144 L368.1811,654.2738 L368.1811,654.2738 L368.2709,654.4587 L365.6928,655.2086 L363.288,656.3155 L361.1365,657.9438 L358.5187,658.6121 L356.2771,660.055 L356.3097,660.2788 L353.85,660.5013 L351.3793,660.6481 L348.9335,660.9658 L346.5452,661.6786 L344.0755,661.8323 L344.0642,661.6998 L341.3004,662.3327 L338.4598,662.0641 L335.7065,662.8206 L332.904,662.9999 L330.0883,663.0238 L330.0939,663.1325 L327.292,663.1892 L324.5101,663.6353 L321.7101,663.7297 L318.9024,663.677 L316.1011,663.7464 L316.1048,663.8655 L313.6591,663.7628 L311.2302,664.2131 L308.7823,664.0379 L306.3422,664.1199 L303.8995,664.1175 L303.896,663.8471 L301.5164,663.9687 L299.141,664.4159 L296.7597,664.4022 L294.3761,664.2234 L291.9955,664.2738 L291.9955,664.2738 L291.9937,664.1306 L289.6135,664.1452 L287.2299,663.9063 L284.8556,664.3643 L282.4767,664.4774 L280.0916,664.1175 L280.0987,664.3513 L277.6606,664.352 L275.2091,663.9083 L272.7718,663.9336 L270.325,663.6484 L267.89,663.7464 L267.8965,663.8725 L265.0982,663.7114 L262.3078,663.7025 L259.4924,663.2109 L256.6971,663.1086 L253.9028,663.0238 L253.9195,663.2201 L251.1267,663.0367 L248.2886,662.3202 L245.5031,662.223 L242.7187,662.1367 L239.9156,661.8323 L239.8765,661.5637 L237.4979,661.6323 L235.0515,661.2349 L232.5882,660.7216 L230.1634,660.473 L227.714,660.055 L227.8555,660.3463 L225.2724,658.7737 L223.0136,657.8684 L220.6271,656.7004 L218.2133,655.4763 L215.81,654.2738 L215.9353,654.2738 L215.9109,649.2144 L215.2552,644.155 L215.4537,639.0956 L215.3997,634.0363 L215.81,628.9769" style="stroke:#181818;stroke-width:.5"/><path fill="none" d="M215.81,628.9769 L215.81,628.9769 L215.8508,629.0609 L218.1104,629.9675 L220.6091,631.3666 L223.03,632.6054 L225.1947,633.3167 L227.714,634.7581 L227.709,634.7239 L230.127,634.926 L232.5701,635.3004 L235.0306,635.7946 L237.431,635.8759 L239.9156,636.5355 L239.9365,636.7806 L242.6892,636.4946 L245.503,636.9245 L248.3242,637.4416 L251.1021,637.4506 L253.9028,637.7269 L253.9043,637.7572 L256.6995,637.8572 L259.5017,638.0952 L262.3006,638.2666 L265.106,638.565 L267.89,638.4495 L267.899,638.7476 L270.3395,638.8255 L272.774,638.7111 L275.2172,638.8781 L277.6607,639.0584 L280.0916,638.8206 L280.0873,638.5001 L282.4763,639.1534 L284.8514,638.7514 L287.2371,639.1516 L289.6119,638.7256 L291.9955,638.9769 L291.9955,638.9769 L291.9951,638.9464 L294.3807,639.2752 L296.7569,638.8927 L299.1386,638.9299 L301.5207,639.0024 L303.8995,638.8206 L303.9052,639.0055 L306.3398,638.7447 L308.7841,638.7998 L311.2128,638.3437 L313.6647,638.6501 L316.1011,638.4495 L316.1137,638.6928 L318.9088,638.5023 L321.7101,638.4326 L324.4824,637.8015 L327.2759,637.5819 L330.0883,637.7269 L330.0649,637.4517 L332.8835,637.4625 L335.6758,637.1633 L338.5063,637.3138 L341.2715,636.6964 L344.0755,636.5355 L344.0535,636.3846 L346.5305,636.2804 L348.9134,635.5313 L351.3632,635.2407 L353.8784,635.399 L356.2771,634.7581 L356.3617,634.9323 L358.8005,633.8955 L360.9762,632.317 L363.4815,631.417 L365.9149,630.3692 L368.1811,628.9769" style="stroke:#181818;stroke-width:.5"/><text x="225.81" y="655.972" fill="#000" font-family="sans-serif" font-size="14" lengthAdjust="spacing" textLength="132.371">&quot;base de données&quot;</text></g><g id="elem_appli"><polygon fill="#F1F1F1" points="231.93 505.687 231.98 505.736 233.832 503.589 235.976 501.732 238.024 499.781 239.762 497.519 241.93 495.687 241.93 495.609 252.619 495.26 263.307 495.303 273.996 495.619 284.685 494.995 295.373 496.24 306.062 495.687 305.852 495.687 305.996 502.946 306.206 510.206 306.033 517.465 306.085 524.724 306.062 531.984 306.054 531.976 304.104 534.026 302.118 536.04 300.2 538.122 298.22 540.142 296.062 541.984 296.062 542.663 285.373 542.238 274.685 542.447 263.996 542.686 253.307 541.263 242.619 542.662 231.93 541.984 231.831 541.984 232.108 534.724 231.765 527.465 231.907 520.206 232.177 512.946 231.93 505.687" style="stroke:#181818;stroke-width:.5"/><path fill="#F1F1F1" d="M296.0618,505.6869 L296.1279,505.7529 L297.9316,503.5567 L300.1226,501.7476 L302.1874,499.8125 L303.8376,497.4627 L306.0618,495.6869" style="stroke:#181818;stroke-width:.5"/><path fill="#F1F1F1" d="M231.93,505.6869 L231.93,505.9671 L242.6186,505.1344 L253.3073,505.9446 L263.9959,506.2198 L274.6846,504.7357 L285.3732,505.5833 L296.0618,505.6869" style="stroke:#181818;stroke-width:.5"/><path fill="#F1F1F1" d="M296.0618,505.6869 L296.1553,505.6869 L295.8777,512.9463 L296.1477,520.2056 L296.2395,527.465 L295.7448,534.7244 L296.0618,541.9838" style="stroke:#181818;stroke-width:.5"/><text x="246.93" y="528.682" fill="#000" font-family="sans-serif" font-size="14" lengthAdjust="spacing" textLength="34.132">appli</text></g><g id="elem_outil d'intégration"><polygon fill="#F1F1F1" points="225.6 382.387 225.649 382.436 227.502 380.289 229.646 378.432 231.694 376.481 233.432 374.219 235.6 372.387 235.6 372.309 245.92 371.96 256.24 372.003 266.559 372.319 276.879 371.695 287.199 372.94 297.519 371.757 307.839 372.189 318.158 372.819 328.478 372.301 338.798 372.455 349.118 372.355 359.438 372.565 369.757 372.626 380.077 372.973 390.397 372.387 390.621 372.387 390.623 379.646 390.482 386.906 390.551 394.165 390.631 401.424 390.397 408.684 390.227 408.514 388.557 410.844 386.327 412.614 384.523 414.81 382.28 416.567 380.397 418.684 380.397 418.615 370.077 419.425 359.757 418.635 349.438 418.789 339.118 419.022 328.798 419.1 318.478 418.68 308.158 418.971 297.839 418.111 287.519 418.968 277.199 419.232 266.879 419.128 256.559 419.297 246.24 418.201 235.92 418.032 225.6 418.684 225.393 418.684 225.58 411.424 225.535 404.165 225.827 396.906 225.542 389.646 225.6 382.387" style="stroke:#181818;stroke-width:.5"/><path fill="#F1F1F1" d="M380.3969,382.3869 L380.4629,382.4529 L382.2667,380.2567 L384.4576,378.4476 L386.5225,376.5125 L388.1727,374.1627 L390.3969,372.3869" style="stroke:#181818;stroke-width:.5"/><path fill="#F1F1F1" d="M225.6,382.3869 L225.6,382.6671 L235.9198,381.8344 L246.2396,382.6446 L256.5594,382.9198 L266.8792,381.4357 L277.199,382.2833 L287.5188,381.8182 L297.8385,381.8755 L308.1583,382.296 L318.4781,381.465 L328.7979,383.1251 L339.1177,381.5465 L349.4375,382.1232 L359.7573,382.9628 L370.0771,382.2725 L380.3969,382.3869" style="stroke:#181818;stroke-width:.5"/><path fill="#F1F1F1" d="M380.3969,382.3869 L380.4903,382.3869 L380.2127,389.6463 L380.4828,396.9056 L380.5745,404.165 L380.0798,411.4244 L380.3969,418.6838" style="stroke:#181818;stroke-width:.5"/><text x="240.6" y="405.382" fill="#000" font-family="sans-serif" font-size="14" lengthAdjust="spacing" textLength="124.797">outil d&apos;intégration</text></g><g id="elem_Développeur"><polygon fill="#F1F1F1" points="258.046 53.243 256.873 54.845 255.486 57.192 253.502 58.773 251.418 59.638 249.756 59.714 247.619 58.632 245.604 57.925 244.074 56.49 243.271 54.848 242.795 53.54 242.329 51.832 241.572 50.362 242.154 48.927 242.663 47.355 244.575 46.111 245.921 44.498 247.586 43.962 249.565 43.501 252.103 43.775 253.494 44.43 255.11 44.728 257.076 46.741 257.761 48.867 258.058 50.318 257.721 52.708" style="stroke:#181818;stroke-width:.5"/><path fill="none" d="M250.0013,59.2969 L250.1882,59.2969 L249.6331,64.6969 L250.1732,70.0969 L250.3566,75.4969 L249.3672,80.8969 L250.0013,86.2969 M237.0013,67.2969 L237.0013,67.2278 L242.2013,66.9178 L247.4013,66.956 L252.6013,67.2363 L257.8013,66.6823 L263.0013,67.2969 M250.0013,86.2969 L250.3732,86.6192 L246.978,88.93 L244.6685,92.1817 L242.4915,95.5483 L239.5437,98.2469 L237.0013,101.2969 M250.0013,86.2969 L250.0472,86.3366 L252.5799,89.2783 L255.3213,92.4008 L257.962,95.4361 L260.7948,98.6378 L263.0013,101.2969" style="stroke:#181818;stroke-width:.5"/><text x="205.12" y="115.792" fill="#000" font-family="sans-serif" font-size="14" lengthAdjust="spacing" textLength="89.763">Développeur</text></g><g id="link_appli_bdd"><path fill="none" d="M273.27,542.2669 L273.5453,542.3193 L274.6471,552.2429 L277.3627,562.4739 L279.5528,572.6048 L280.0146,582.4065 L282.767,592.6445 L284.23,602.6369 L286.7083,612.8227" style="stroke:#181818;stroke-width:1"/><polygon fill="#181818" points="287.83 618.717 287.898 618.733 288.145 616.768 288.791 614.896 289.308 612.994 289.396 610.991 290.077 609.128 290.056 609.113 289.323 609.983 288.699 610.927 288.149 611.921 287.341 612.74 286.895 613.805 286.999 613.958 285.842 612.995 284.987 612.478 284.17 612.015 283.137 611.236 282.218 610.623 282.237 610.636 283.332 612.236 284.512 613.895 285.651 615.525 286.868 617.209 287.83 618.717" style="stroke:#181818;stroke-width:1"/><text x="283" y="585.044" fill="#000" font-family="sans-serif" font-size="13" lengthAdjust="spacing" textLength="102.083">stocke données</text></g><g id="link_Développeur_code"><path fill="none" d="M227.69,119.2669 L227.7728,119.3101 L225.9843,122.1351 L224.6811,125.2136 L223.22,128.2096 L221.239,130.9341 L219.9775,134.0344 L219.9462,134.0198 L218.41,136.9652 L217.0319,139.9837 L215.7635,143.0531 L214.1167,145.9471 L213,149.0869 L213.2292,149.1765 L211.3625,152.5067 L210.165,156.0984 L209.0491,159.7221 L207.4582,163.1601 L206.1172,166.6958 L206.1459,166.7055 L204.8843,170.2957 L203.7535,173.9301 L202.5596,177.5432 L201.486,181.1971 L200.02,184.7181 L200.3055,184.8044 L199.274,188.2303 L198.0585,191.6005 L197.1124,195.0523 L196.179,198.5078 L194.8453,201.8423 L194.5363,201.7571 L194.3129,204.9055 L193.0722,207.7731 L192.6048,210.8542 L191.341,213.7154 L190.73,216.7569" style="stroke:#181818;stroke-width:1"/><text x="214" y="162.154" fill="#000" font-family="sans-serif" font-size="13" lengthAdjust="spacing" textLength="46.338">Produit</text></g><g id="link_Développeur_c"><path fill="none" d="M265.66,119.5669 L265.9187,119.6745 L269.0305,128.6807 L273.6589,138.318 L277.7935,147.7497 L280.3038,156.5056 L284.9668,166.1573 L288.4179,175.3047 L292.3514,184.6527 L296.6201,194.1403 L299.7334,203.1471 L304.4649,212.8273" style="stroke:#181818;stroke-width:1"/><polygon fill="#181818" points="306.77 218.367 306.84 218.369 306.679 216.394 306.929 214.43 307.045 212.462 306.721 210.484 307.005 208.521 306.981 208.511 306.443 209.513 306.025 210.564 305.691 211.65 305.067 212.617 304.849 213.751 304.92 213.921 303.723 213.125 302.732 212.827 301.766 212.59 300.654 211.999 299.619 211.594 299.635 211.611 301.042 212.941 302.521 214.346 303.965 215.716 305.474 217.154 306.77 218.367" style="stroke:#181818;stroke-width:1"/><text x="285" y="162.154" fill="#000" font-family="sans-serif" font-size="13" lengthAdjust="spacing" textLength="63.292">Configure</text></g><g id="link_code_Cloud Provider"><path fill="none" d="M183.25,256.4569 L183.3428,256.468 L182.6942,259.547 L182.5893,262.6911 L182.3074,265.814 L181.4432,268.8671 L181.385,272.0169 L181.3506,272.014 L180.9191,275.2749 L180.6612,278.5505 L180.5238,281.8363 L179.9708,285.087 L180,288.3869 L180.246,288.3921 L179.6447,291.9517 L179.7616,295.5264 L179.9662,299.103 L179.6609,302.6688 L179.6237,306.2403 L179.654,306.2415 L179.754,309.8628 L179.9919,313.4897 L180.1632,317.1139 L180.4616,320.7432 L180.3459,324.3559 L180.6431,324.3813 L180.9475,327.8999 L181.0601,331.402 L181.4534,334.9282 L181.8598,338.4554 L181.8496,341.9471 L181.5309,341.9129 L182.0443,340.9988 L181.5083,339.9723 L181.7701,339.0312 L181.2103,338.0021 L181.324,337.0452" style="stroke:#181818;stroke-width:1"/><polygon fill="#181818" points="181.962 343.011 182.029 343.033 182.435 341.094 183.232 339.281 183.901 337.427 184.152 335.439 184.982 333.637 184.962 333.62 184.161 334.428 183.462 335.318 182.833 336.264 181.961 337.014 181.43 338.039 181.546 338.183 180.418 337.166 179.628 336.567 178.879 336.021 177.89 335.176 177.028 334.488 177.047 334.499 178.005 336.187 179.053 337.927 180.057 339.642 181.144 341.404 181.962 343.011" style="stroke:#181818;stroke-width:1"/><text x="181" y="301.454" fill="#000" font-family="sans-serif" font-size="13" lengthAdjust="spacing" textLength="91.07">se déploie sur</text></g><g id="link_outil d'intégration_c"><path fill="none" d="M308.86,372.0269 L309.14,372.0376 L308.6935,361.9226 L309.8886,351.8705 L310.5492,341.7979 L309.4517,331.658 L310.6842,321.6073 L310.605,311.5064 L311.0479,301.4255 L311.8536,291.3584 L311.4088,281.2435 L313.4531,271.2238 L313.101,261.1125" style="stroke:#181818;stroke-width:1"/><polygon fill="#181818" points="313.33 255.117 313.393 255.148 312.338 256.824 311.652 258.682 310.845 260.48 309.644 262.085 308.989 263.958 308.972 263.939 309.723 263.084 310.563 262.326 311.464 261.634 312.153 260.713 313.139 260.113 313.275 260.239 313.754 260.8 314.629 261.728 315.551 262.701 316.194 263.414 316.984 264.263 317.005 264.271 316.243 262.43 315.577 260.627 314.865 258.805 314.242 257.019 313.33 255.117" style="stroke:#181818;stroke-width:1"/><text x="313" y="301.454" fill="#000" font-family="sans-serif" font-size="13" lengthAdjust="spacing" textLength="59.503">Déchiffre</text></g><g id="link_outil d'intégration_appli"><path fill="none" d="M300.76,419.0669 L301.0268,419.1527 L296.9893,428.9889 L294.5158,439.328 L291.533,449.5034 L286.8754,459.1403 L284.4375,469.4909 L280.75,479.4397 L278.0466,489.7049" style="stroke:#181818;stroke-width:1"/><polygon fill="#181818" points="276.21 495.417 276.262 495.464 277.42 493.856 278.883 492.522 280.247 491.099 281.283 489.384 282.773 488.073 282.761 488.05 281.701 488.464 280.702 488.993 279.743 489.603 278.642 489.935 277.74 490.657 277.905 490.741 277.037 489.554 276.648 488.614 276.318 487.703 275.648 486.618 275.157 485.625 275.18 485.627 275.357 487.582 275.637 489.548 275.868 491.508 276.193 493.479 276.21 495.417" style="stroke:#181818;stroke-width:1"/><text x="292" y="461.754" fill="#000" font-family="sans-serif" font-size="13" lengthAdjust="spacing" textLength="137.992">Injection d&apos;identifiant</text></g></g></svg>